<svg xmlns="http://www.w3.org/2000/svg" width="236" height="436" fill="none" viewBox="0 0 236 436">
  <g filter="url(#a)">
    <g clip-path="url(#b)">
      <path fill="#fff" d="M6 2h224v42H6z"/>
      <path fill="#fff" d="M11 7h214v32H11z"/>
      <path fill="#334155" d="M20.004 17.818h2.257l3.023 7.378h.12l3.022-7.378h2.257V28h-1.77v-6.995h-.094l-2.814 6.965h-1.322l-2.814-6.98h-.095V28h-1.77V17.818Zm13.727 13.046c-.245 0-.473-.02-.681-.06a2.528 2.528 0 0 1-.492-.13l.417-1.401a2.4 2.4 0 0 0 .701.11.86.86 0 0 0 .542-.195c.16-.122.293-.328.403-.616l.154-.413-2.77-7.795h1.91l1.76 5.767h.08l1.764-5.767h1.914l-3.057 8.56a3.452 3.452 0 0 1-.567 1.04 2.304 2.304 0 0 1-.865.666c-.338.156-.742.234-1.213.234ZM45.538 28H43.57l3.584-10.182h2.277L53.021 28h-1.97l-2.719-8.094h-.08L45.539 28Zm.065-3.992h5.37v1.481h-5.37v-1.481Zm11.778 4.141c-.763 0-1.417-.167-1.964-.502a3.352 3.352 0 0 1-1.258-1.387c-.292-.593-.437-1.276-.437-2.048 0-.776.149-1.46.447-2.054a3.34 3.34 0 0 1 1.263-1.392c.547-.334 1.193-.502 1.939-.502.62 0 1.168.115 1.645.343.48.226.864.546 1.149.96.285.41.447.891.487 1.442h-1.72a1.644 1.644 0 0 0-.497-.92c-.259-.249-.605-.373-1.04-.373-.367 0-.69.1-.969.298-.278.196-.495.477-.651.845-.153.368-.229.81-.229 1.323 0 .52.076.968.229 1.342.152.371.366.658.641.86.279.2.605.299.98.299.265 0 .502-.05.71-.15.213-.102.39-.25.532-.442.143-.192.24-.426.294-.701h1.72a2.999 2.999 0 0 1-.477 1.437c-.275.414-.65.739-1.124.974-.474.232-1.03.348-1.67.348Zm8.08 0c-.763 0-1.417-.167-1.964-.502a3.352 3.352 0 0 1-1.258-1.387c-.291-.593-.437-1.276-.437-2.048 0-.776.149-1.46.447-2.054a3.34 3.34 0 0 1 1.263-1.392c.547-.334 1.193-.502 1.939-.502.62 0 1.168.115 1.645.343.481.226.864.546 1.149.96.285.41.447.891.487 1.442h-1.72a1.644 1.644 0 0 0-.497-.92c-.259-.249-.605-.373-1.04-.373-.367 0-.69.1-.969.298-.278.196-.495.477-.651.845-.152.368-.229.81-.229 1.323 0 .52.077.968.229 1.342.152.371.366.658.641.86.279.2.605.299.98.299.265 0 .502-.05.71-.15.213-.102.39-.25.533-.442.142-.192.24-.426.293-.701h1.72a2.999 2.999 0 0 1-.477 1.437c-.275.414-.65.739-1.124.974-.474.232-1.03.348-1.67.348Zm8.08 0c-.746 0-1.392-.164-1.94-.492a3.342 3.342 0 0 1-1.272-1.377c-.298-.59-.447-1.28-.447-2.068 0-.79.149-1.48.447-2.073a3.335 3.335 0 0 1 1.273-1.383c.547-.328 1.193-.492 1.939-.492s1.392.164 1.939.492c.547.328.97.79 1.267 1.383.302.593.453 1.284.453 2.073 0 .788-.15 1.478-.453 2.068a3.31 3.31 0 0 1-1.267 1.377c-.547.328-1.193.492-1.94.492Zm.01-1.442c.404 0 .742-.11 1.014-.333a2 2 0 0 0 .606-.904 3.71 3.71 0 0 0 .204-1.263c0-.468-.068-.89-.204-1.268a2.007 2.007 0 0 0-.606-.91c-.272-.225-.61-.338-1.014-.338-.415 0-.76.113-1.034.338a2.041 2.041 0 0 0-.612.91 3.81 3.81 0 0 0-.199 1.268c0 .464.067.885.2 1.262.135.378.339.68.61.905.276.222.62.333 1.035.333Zm10.044-1.919v-4.424h1.8V28h-1.746v-1.357h-.08a2.297 2.297 0 0 1-.85 1.049c-.39.271-.873.407-1.446.407-.5 0-.943-.11-1.328-.333a2.314 2.314 0 0 1-.894-.98c-.216-.43-.323-.95-.323-1.56v-4.862h1.8v4.583c0 .484.132.869.397 1.154.265.285.613.427 1.044.427.265 0 .522-.064.77-.194.25-.129.453-.321.612-.576.162-.259.244-.582.244-.97Zm5.45-1.262V28h-1.8v-7.636h1.72v1.297h.09c.175-.427.455-.767.84-1.019.388-.252.867-.378 1.437-.378.527 0 .986.113 1.377.338.394.226.7.552.915.98.218.427.326.946.323 1.556V28h-1.8v-4.584c0-.51-.133-.91-.398-1.198-.261-.288-.624-.433-1.088-.433-.315 0-.595.07-.84.21a1.448 1.448 0 0 0-.572.59c-.136.26-.204.573-.204.94Zm10.544-3.162v1.392H95.2v-1.392h4.39Zm-3.306-1.83h1.8v7.17c0 .241.037.427.11.556a.59.59 0 0 0 .298.258c.122.047.258.07.407.07.113 0 .216-.008.309-.025a2.72 2.72 0 0 0 .218-.044l.304 1.406a4.01 4.01 0 0 1-.413.11c-.176.04-.391.063-.646.07a2.935 2.935 0 0 1-1.218-.204 1.895 1.895 0 0 1-.86-.706c-.21-.319-.312-.716-.309-1.194v-7.467Z"/>
      <path stroke="#F1F5F9" d="M6 43.5h246"/>
      <path fill="#fff" d="M6 44h224v138H6z"/>
      <path fill="#fff" d="M11 49h214v32H11z"/>
      <path stroke="#334155" stroke-linecap="round" stroke-linejoin="round" stroke-width="2" d="M31.667 71v-1.333A2.667 2.667 0 0 0 29 67h-4a2.667 2.667 0 0 0-2.667 2.667V71M27 64.334A2.667 2.667 0 1 0 27 59a2.667 2.667 0 0 0 0 5.334Z"/>
      <path fill="#334155" d="M44.119 70V59.82h3.629c.792 0 1.448.144 1.969.432.52.288.91.683 1.168 1.183.259.497.388 1.058.388 1.68 0 .627-.131 1.19-.393 1.691a2.85 2.85 0 0 1-1.173 1.183c-.52.289-1.175.433-1.964.433h-2.496v-1.303h2.357c.5 0 .906-.086 1.218-.258.311-.176.54-.415.686-.716.146-.302.219-.645.219-1.03 0-.384-.073-.725-.22-1.023a1.569 1.569 0 0 0-.69-.702c-.312-.169-.723-.253-1.233-.253h-1.93V70H44.12Zm8.835 0v-7.636h1.437v1.213h.08c.139-.411.384-.734.736-.97a2.106 2.106 0 0 1 1.203-.357 6.379 6.379 0 0 1 .631.034v1.422a2.664 2.664 0 0 0-.318-.054 3.035 3.035 0 0 0-.458-.035c-.35 0-.664.074-.94.224a1.661 1.661 0 0 0-.884 1.496V70h-1.487Zm8.317.154c-.716 0-1.341-.164-1.875-.492a3.32 3.32 0 0 1-1.243-1.377c-.295-.59-.442-1.28-.442-2.068 0-.792.147-1.485.442-2.078a3.312 3.312 0 0 1 1.243-1.382c.534-.328 1.159-.492 1.875-.492.715 0 1.34.163 1.874.492.533.328.948.788 1.243 1.382.295.593.442 1.286.442 2.078 0 .789-.147 1.478-.442 2.068a3.32 3.32 0 0 1-1.243 1.377c-.534.328-1.159.492-1.874.492Zm.005-1.248c.464 0 .848-.122 1.153-.367a2.16 2.16 0 0 0 .676-.98c.15-.407.224-.856.224-1.347a3.88 3.88 0 0 0-.224-1.342 2.187 2.187 0 0 0-.676-.99c-.305-.248-.69-.373-1.153-.373-.468 0-.856.125-1.164.373a2.222 2.222 0 0 0-.68.99 3.96 3.96 0 0 0-.22 1.342c0 .49.073.94.22 1.347.148.408.375.734.68.98.308.245.696.367 1.164.367Zm8.848-6.542v1.193h-4.316v-1.193h4.316ZM66.992 70v-8.52c0-.477.104-.873.313-1.188a1.92 1.92 0 0 1 .83-.711c.345-.16.72-.239 1.124-.239.298 0 .553.025.765.075.212.046.37.09.473.129l-.348 1.203c-.07-.02-.16-.043-.269-.07a1.53 1.53 0 0 0-.398-.044c-.36 0-.62.09-.775.268-.153.18-.229.438-.229.776V70h-1.486Zm4.665 0v-7.636h1.487V70h-1.487Zm.751-8.814a.945.945 0 0 1-.666-.259.84.84 0 0 1-.273-.626.83.83 0 0 1 .273-.627.935.935 0 0 1 .666-.263c.259 0 .48.088.661.263a.823.823 0 0 1 .279.627c0 .242-.093.45-.279.626a.927.927 0 0 1-.66.259Zm4.222-1.367V70h-1.486V59.82h1.486Zm5.291 10.335c-.752 0-1.4-.16-1.944-.482a3.27 3.27 0 0 1-1.252-1.367c-.292-.59-.438-1.281-.438-2.073 0-.782.146-1.472.438-2.068a3.398 3.398 0 0 1 1.233-1.397c.53-.335 1.15-.503 1.859-.503.43 0 .848.072 1.253.214.404.143.767.366 1.089.671.321.305.575.701.76 1.189.186.484.279 1.072.279 1.765v.526h-6.07v-1.113h4.613a2.2 2.2 0 0 0-.239-1.04 1.804 1.804 0 0 0-.67-.72 1.875 1.875 0 0 0-1.005-.264 1.94 1.94 0 0 0-1.094.309 2.07 2.07 0 0 0-.716.795 2.296 2.296 0 0 0-.248 1.06v.87c0 .51.09.944.268 1.302.182.358.436.631.76.82.326.186.705.278 1.14.278.281 0 .538-.04.77-.119a1.597 1.597 0 0 0 .99-.97l1.406.254a2.548 2.548 0 0 1-.606 1.089 2.939 2.939 0 0 1-1.09.72c-.433.17-.929.254-1.486.254ZM92.208 59.82V70H90.67V59.82h1.537Zm5.682 2.545v1.193h-4.17v-1.193h4.171Zm-3.052-1.83h1.486v7.224c0 .288.043.505.13.651a.68.68 0 0 0 .332.294c.14.05.29.074.453.074.12 0 .224-.008.313-.025.09-.016.16-.03.209-.04l.268 1.229a2.488 2.488 0 0 1-.368.099 2.99 2.99 0 0 1-.596.06 2.618 2.618 0 0 1-1.094-.21 1.877 1.877 0 0 1-.82-.675c-.21-.305-.313-.688-.313-1.149v-7.532Zm7.906 9.62c-.753 0-1.401-.16-1.944-.482a3.267 3.267 0 0 1-1.253-1.367c-.292-.59-.438-1.281-.438-2.073 0-.782.146-1.472.438-2.068a3.398 3.398 0 0 1 1.233-1.397c.53-.335 1.15-.503 1.859-.503.431 0 .849.072 1.253.214.404.143.767.366 1.089.671.321.305.575.701.76 1.189.186.484.279 1.072.279 1.765v.526h-6.07v-1.113h4.613a2.2 2.2 0 0 0-.238-1.04 1.808 1.808 0 0 0-.672-.72 1.873 1.873 0 0 0-1.004-.264 1.94 1.94 0 0 0-1.094.309 2.078 2.078 0 0 0-.716.795 2.304 2.304 0 0 0-.248 1.06v.87c0 .51.089.944.268 1.302.183.358.436.631.761.82.325.186.704.278 1.139.278.281 0 .538-.04.77-.119a1.59 1.59 0 0 0 .989-.97l1.407.254a2.536 2.536 0 0 1-.606 1.089 2.933 2.933 0 0 1-1.089.72c-.434.17-.93.254-1.486.254Zm4.925-.154v-7.636h1.427v1.243h.095c.159-.421.419-.75.78-.985.361-.238.794-.358 1.298-.358.51 0 .938.12 1.282.358.348.24.605.567.771.985h.079c.183-.408.473-.733.87-.975.398-.245.872-.367 1.422-.367.693 0 1.258.217 1.696.65.44.435.661 1.09.661 1.964V70h-1.487v-4.98c0-.517-.14-.892-.422-1.124a1.537 1.537 0 0 0-1.009-.348c-.484 0-.861.15-1.129.448-.268.295-.403.674-.403 1.138V70h-1.481v-5.076c0-.414-.129-.747-.388-.999s-.595-.378-1.009-.378c-.282 0-.542.075-.781.224-.235.146-.426.35-.572.611a1.879 1.879 0 0 0-.213.91V70h-1.487Z"/>
      <path fill="#64748B" d="M187.277 69.196a1.85 1.85 0 0 1-.955-.255 1.97 1.97 0 0 1-.69-.69 1.853 1.853 0 0 1-.256-.955c0-.35.086-.668.256-.955.171-.29.401-.521.69-.694.29-.174.608-.26.955-.26h.937v-1.509h-.937a1.85 1.85 0 0 1-.955-.256 1.93 1.93 0 0 1-.69-.686 1.86 1.86 0 0 1-.256-.959c0-.349.086-.667.256-.954a1.93 1.93 0 0 1 .69-.686c.29-.173.608-.26.955-.26.349 0 .668.087.955.26.289.17.519.4.69.686.173.287.26.605.26.954v.93h1.513v-.93c0-.349.085-.667.255-.954a1.94 1.94 0 0 1 .686-.686c.29-.173.61-.26.959-.26.35 0 .668.087.955.26.287.17.515.4.686.686.17.287.255.605.255.954 0 .35-.085.67-.255.96a1.94 1.94 0 0 1-.686.685c-.287.17-.605.256-.955.256h-.933v1.509h.933c.35 0 .668.086.955.26.287.173.515.404.686.694.17.287.255.605.255.955 0 .346-.085.664-.255.954a1.975 1.975 0 0 1-.686.69 1.83 1.83 0 0 1-.955.256c-.349 0-.669-.085-.959-.255a1.975 1.975 0 0 1-.686-.69 1.852 1.852 0 0 1-.255-.955v-.938h-1.513v.938c0 .346-.087.664-.26.954a1.97 1.97 0 0 1-.69.69 1.832 1.832 0 0 1-.955.256Zm0-.971c.173 0 .33-.041.469-.124a.951.951 0 0 0 .341-.337.896.896 0 0 0 .127-.468v-.938h-.937a.951.951 0 0 0-.81.465.93.93 0 0 0-.123.473c0 .17.041.326.123.468a.951.951 0 0 0 .341.337.92.92 0 0 0 .469.124Zm0-5.318h.937v-.93a.881.881 0 0 0-.127-.468.952.952 0 0 0-.341-.337.905.905 0 0 0-.469-.123.92.92 0 0 0-.469.123.906.906 0 0 0-.464.805.93.93 0 0 0 .123.474.96.96 0 0 0 .341.332.92.92 0 0 0 .469.123Zm4.385 0h.933c.173 0 .33-.042.469-.124a.928.928 0 0 0 .46-.806.873.873 0 0 0-.128-.468.905.905 0 0 0-.801-.46.927.927 0 0 0-.809.46.897.897 0 0 0-.124.468v.93Zm.933 5.318a.904.904 0 0 0 .801-.46.887.887 0 0 0 .128-.47.895.895 0 0 0-.128-.472.92.92 0 0 0-.801-.465h-.933v.938c0 .17.041.326.124.468a.926.926 0 0 0 .809.46Zm-3.413-2.838h1.513v-1.509h-1.513v1.509Zm7.725-.533 5.262-5.263 5.267 5.263h-2.676V69h-5.182v-4.146h-2.671Zm2.22-.87h1.491v4.147h3.107v-4.146h1.491l-3.047-3.047-3.042 3.047ZM209.428 69v-8.727h3.196c.619 0 1.132.102 1.538.307.406.202.71.476.912.822.202.344.302.732.302 1.164 0 .363-.066.67-.2.92a1.64 1.64 0 0 1-.537.597 2.361 2.361 0 0 1-.733.323v.086c.29.014.573.108.848.281.279.17.509.413.691.729.181.315.272.699.272 1.15 0 .446-.105.847-.315 1.202-.207.352-.528.632-.963.84-.435.204-.99.306-1.666.306h-3.345Zm1.316-1.129h1.901c.631 0 1.082-.122 1.355-.367.273-.244.409-.55.409-.916 0-.275-.07-.528-.209-.758a1.493 1.493 0 0 0-.596-.55 1.914 1.914 0 0 0-.912-.204h-1.948v2.795Zm0-3.822h1.765c.295 0 .561-.057.796-.17a1.39 1.39 0 0 0 .567-.478c.142-.208.213-.452.213-.733 0-.36-.126-.663-.379-.908-.253-.244-.641-.366-1.163-.366h-1.799v2.655Z"/>
      <path fill="#fff" d="M11 81h214v32H11z"/>
      <path stroke="#334155" stroke-linecap="round" stroke-linejoin="round" stroke-width="2" d="M32.333 92.334H21.667c-.737 0-1.334.597-1.334 1.333v6.667c0 .736.597 1.333 1.334 1.333h10.666c.737 0 1.334-.597 1.334-1.333v-6.667c0-.736-.597-1.333-1.334-1.333Zm-12 3.333h13.334"/>
      <path fill="#334155" d="M44.119 102V91.819h3.728c.723 0 1.321.119 1.795.357.474.236.829.556 1.064.96.235.401.353.853.353 1.357 0 .424-.078.782-.234 1.074-.156.288-.364.52-.626.696a2.761 2.761 0 0 1-.855.378v.1c.338.016.668.125.99.328.324.198.592.482.804.85.213.368.319.815.319 1.342a2.7 2.7 0 0 1-.368 1.402c-.242.411-.617.737-1.124.979-.507.239-1.155.358-1.944.358H44.12Zm1.536-1.317h2.217c.736 0 1.263-.143 1.581-.428.318-.285.477-.641.477-1.069 0-.321-.08-.616-.243-.885a1.74 1.74 0 0 0-.696-.64c-.298-.16-.653-.24-1.064-.24h-2.272v3.262Zm0-4.46h2.058c.345 0 .655-.066.93-.199.278-.132.499-.318.661-.556.166-.242.249-.527.249-.856 0-.42-.148-.773-.443-1.058-.295-.285-.747-.428-1.357-.428h-2.098v3.097ZM53.159 102v-7.636h1.487V102h-1.487Zm.751-8.814a.945.945 0 0 1-.666-.259.84.84 0 0 1-.273-.626.83.83 0 0 1 .273-.627.935.935 0 0 1 .666-.263c.259 0 .48.088.661.263a.823.823 0 0 1 .279.627c0 .242-.093.45-.279.626a.927.927 0 0 1-.66.259Zm4.222-1.368V102h-1.486V91.819h1.486Zm2 10.182v-7.636h1.487V102h-1.487Zm.75-8.814a.945.945 0 0 1-.665-.259.84.84 0 0 1-.274-.626.83.83 0 0 1 .274-.627.935.935 0 0 1 .666-.263.92.92 0 0 1 .661.263.823.823 0 0 1 .278.627c0 .242-.092.45-.278.626a.927.927 0 0 1-.661.259Zm4.223 4.28V102h-1.487v-7.636h1.427v1.243h.095c.175-.404.45-.73.825-.975.378-.245.853-.368 1.427-.368.52 0 .976.11 1.367.329.391.215.694.536.91.964.215.428.323.956.323 1.586V102h-1.487v-4.678c0-.553-.144-.986-.432-1.298-.288-.314-.684-.472-1.188-.472-.345 0-.651.075-.92.224a1.61 1.61 0 0 0-.631.656c-.153.285-.23.63-.23 1.034Zm10.082 7.557c-.606 0-1.128-.08-1.566-.239-.434-.159-.789-.369-1.064-.631a2.659 2.659 0 0 1-.616-.86l1.278-.527c.09.146.208.3.358.462.152.166.358.307.616.423.262.116.598.174 1.01.174.563 0 1.028-.138 1.396-.413.368-.272.552-.706.552-1.302v-1.502h-.094a3.47 3.47 0 0 1-.388.542 2.099 2.099 0 0 1-.686.517c-.292.146-.671.219-1.139.219a3.179 3.179 0 0 1-1.63-.423c-.481-.285-.862-.704-1.144-1.257-.278-.557-.417-1.242-.417-2.054 0-.812.137-1.508.412-2.088.279-.58.66-1.024 1.144-1.332a2.974 2.974 0 0 1 1.645-.468c.474 0 .857.08 1.149.24.291.155.518.337.68.546.166.209.294.393.384.552h.109v-1.238h1.457v7.805c0 .657-.153 1.195-.458 1.616a2.69 2.69 0 0 1-1.238.935c-.517.202-1.1.303-1.75.303Zm-.015-4.37c.428 0 .79-.099 1.084-.298.299-.202.524-.49.676-.865.156-.378.234-.83.234-1.358 0-.513-.076-.966-.229-1.357a2.016 2.016 0 0 0-.67-.915c-.296-.222-.66-.333-1.095-.333-.447 0-.82.116-1.118.348a2.09 2.09 0 0 0-.676.935c-.15.394-.224.835-.224 1.322 0 .5.076.94.229 1.318.152.378.377.673.676.885.301.212.673.318 1.113.318Z"/>
      <path fill="#64748B" d="M187.277 101.196c-.347 0-.665-.085-.955-.255a1.977 1.977 0 0 1-.69-.691 1.851 1.851 0 0 1-.256-.954c0-.35.086-.668.256-.955.171-.29.401-.521.69-.694.29-.174.608-.26.955-.26h.937v-1.509h-.937a1.85 1.85 0 0 1-.955-.256 1.93 1.93 0 0 1-.69-.686 1.86 1.86 0 0 1-.256-.959c0-.349.086-.667.256-.954a1.93 1.93 0 0 1 .69-.686c.29-.173.608-.26.955-.26.349 0 .668.087.955.26.289.17.519.4.69.686.173.287.26.605.26.955v.928h1.513v-.928c0-.35.085-.668.255-.955a1.94 1.94 0 0 1 .686-.686c.29-.173.61-.26.959-.26.35 0 .668.087.955.26.287.17.515.4.686.686.17.287.255.605.255.955 0 .349-.085.669-.255.958a1.94 1.94 0 0 1-.686.686c-.287.17-.605.256-.955.256h-.933v1.509h.933c.35 0 .668.086.955.26.287.173.515.404.686.694.17.287.255.605.255.955 0 .346-.085.664-.255.954a1.982 1.982 0 0 1-.686.691c-.287.17-.605.255-.955.255-.349 0-.669-.085-.959-.255a1.982 1.982 0 0 1-.686-.691 1.85 1.85 0 0 1-.255-.954v-.938h-1.513v.938c0 .346-.087.664-.26.954a1.977 1.977 0 0 1-.69.691 1.84 1.84 0 0 1-.955.255Zm0-.971c.173 0 .33-.041.469-.124a.948.948 0 0 0 .341-.337.896.896 0 0 0 .127-.468v-.938h-.937a.951.951 0 0 0-.81.465.93.93 0 0 0-.123.473c0 .17.041.326.123.468a.948.948 0 0 0 .341.337.914.914 0 0 0 .469.124Zm0-5.319h.937v-.928a.881.881 0 0 0-.127-.47.952.952 0 0 0-.341-.336.905.905 0 0 0-.469-.123.92.92 0 0 0-.469.123.906.906 0 0 0-.464.805.93.93 0 0 0 .123.474.96.96 0 0 0 .341.332.92.92 0 0 0 .469.123Zm4.385 0h.933c.173 0 .33-.04.469-.123a.928.928 0 0 0 .46-.805.873.873 0 0 0-.128-.47.905.905 0 0 0-.801-.46.927.927 0 0 0-.809.46.897.897 0 0 0-.124.47v.928Zm.933 5.319a.916.916 0 0 0 .801-.46.887.887 0 0 0 .128-.47.895.895 0 0 0-.128-.472.92.92 0 0 0-.801-.465h-.933v.938c0 .17.041.326.124.468a.92.92 0 0 0 .809.46Zm-3.413-2.838h1.513v-1.509h-1.513v1.509Zm7.725-.533 5.262-5.263 5.267 5.263h-2.676V101h-5.182v-4.146h-2.671Zm2.22-.87h1.491v4.147h3.107v-4.146h1.491l-3.047-3.047-3.042 3.047ZM209.428 101v-8.727h3.196c.619 0 1.132.102 1.538.307.406.201.71.476.912.822.202.344.302.732.302 1.164 0 .363-.066.67-.2.92a1.64 1.64 0 0 1-.537.597 2.361 2.361 0 0 1-.733.323v.086c.29.014.573.108.848.281.279.17.509.413.691.729.181.315.272.699.272 1.15 0 .446-.105.847-.315 1.202-.207.352-.528.632-.963.839-.435.205-.99.307-1.666.307h-3.345Zm1.316-1.129h1.901c.631 0 1.082-.122 1.355-.367.273-.244.409-.55.409-.916 0-.275-.07-.528-.209-.758a1.493 1.493 0 0 0-.596-.55 1.914 1.914 0 0 0-.912-.204h-1.948v2.795Zm0-3.822h1.765c.295 0 .561-.057.796-.17a1.39 1.39 0 0 0 .567-.478c.142-.207.213-.452.213-.733 0-.36-.126-.664-.379-.908s-.641-.366-1.163-.366h-1.799v2.655Z"/>
      <path fill="#fff" d="M11 113h214v32H11z"/>
      <g clip-path="url(#c)">
        <path stroke="#334155" stroke-linecap="round" stroke-linejoin="round" stroke-width="2" d="M27.147 122.334h-.294a1.333 1.333 0 0 0-1.333 1.333v.12a1.335 1.335 0 0 1-.667 1.153l-.286.167a1.334 1.334 0 0 1-1.334 0l-.1-.053a1.332 1.332 0 0 0-1.82.486l-.146.254a1.332 1.332 0 0 0 .486 1.82l.1.066a1.34 1.34 0 0 1 .667 1.147v.34a1.335 1.335 0 0 1-.667 1.16l-.1.06a1.334 1.334 0 0 0-.486 1.82l.146.253a1.332 1.332 0 0 0 1.82.487l.1-.053a1.334 1.334 0 0 1 1.334 0l.286.166a1.331 1.331 0 0 1 .667 1.154v.12a1.333 1.333 0 0 0 1.333 1.333h.294a1.334 1.334 0 0 0 1.333-1.333v-.12a1.332 1.332 0 0 1 .667-1.154l.286-.166a1.334 1.334 0 0 1 1.334 0l.1.053a1.336 1.336 0 0 0 1.82-.487l.146-.26a1.332 1.332 0 0 0-.486-1.82l-.1-.053a1.335 1.335 0 0 1-.667-1.16v-.333a1.335 1.335 0 0 1 .667-1.16l.1-.06a1.336 1.336 0 0 0 .486-1.82l-.146-.254a1.332 1.332 0 0 0-1.82-.486l-.1.053a1.334 1.334 0 0 1-1.334 0l-.286-.167a1.336 1.336 0 0 1-.667-1.153v-.12a1.333 1.333 0 0 0-1.333-1.333Z"/>
        <path stroke="#334155" stroke-linecap="round" stroke-linejoin="round" stroke-width="2" d="M27 131a2 2 0 1 0 0-4 2 2 0 0 0 0 4Z"/>
      </g>
      <path fill="#334155" d="M49.672 126.493a1.455 1.455 0 0 0-.656-1.094c-.385-.261-.869-.392-1.452-.392-.418 0-.779.066-1.084.199a1.67 1.67 0 0 0-.71.536 1.27 1.27 0 0 0-.25.771c0 .242.057.451.17.626.116.176.266.324.452.443.189.116.391.214.607.293.215.077.422.139.621.189l.994.259c.325.079.658.187 1 .323.341.136.658.315.95.537.29.222.526.497.705.825.183.328.274.721.274 1.178 0 .577-.15 1.089-.448 1.537-.295.447-.724.8-1.288 1.059-.56.258-1.237.387-2.033.387-.762 0-1.422-.121-1.979-.363-.556-.242-.992-.585-1.307-1.029-.315-.447-.489-.977-.522-1.591h1.541c.03.368.15.675.358.92.212.242.482.423.81.542.332.116.695.174 1.09.174.433 0 .82-.068 1.158-.204a1.93 1.93 0 0 0 .805-.577c.195-.248.293-.538.293-.87 0-.301-.086-.548-.258-.74a1.902 1.902 0 0 0-.691-.478 6.73 6.73 0 0 0-.98-.333l-1.203-.328c-.815-.222-1.461-.548-1.939-.979-.474-.431-.71-1.001-.71-1.71 0-.587.158-1.099.477-1.537a3.14 3.14 0 0 1 1.292-1.019c.544-.245 1.157-.368 1.84-.368.69 0 1.297.121 1.824.363.53.242.948.575 1.253.999.305.421.464.905.477 1.452h-1.481Zm6.628 7.661c-.752 0-1.4-.16-1.944-.482a3.27 3.27 0 0 1-1.253-1.367c-.291-.59-.437-1.281-.437-2.073 0-.782.146-1.472.438-2.068a3.39 3.39 0 0 1 1.233-1.397c.53-.335 1.15-.503 1.859-.503.43 0 .848.072 1.253.214a3.04 3.04 0 0 1 1.089.671c.321.305.575.701.76 1.189.186.484.279 1.072.279 1.765v.527h-6.07v-1.114h4.613c0-.391-.08-.738-.239-1.039a1.806 1.806 0 0 0-.671-.721 1.872 1.872 0 0 0-1.004-.264c-.418 0-.782.103-1.094.309a2.068 2.068 0 0 0-.716.795 2.298 2.298 0 0 0-.248 1.059v.87c0 .511.089.945.268 1.303.182.358.436.631.76.82.325.186.705.278 1.14.278.28 0 .538-.039.77-.119a1.597 1.597 0 0 0 .99-.969l1.406.253a2.553 2.553 0 0 1-.606 1.089 2.95 2.95 0 0 1-1.09.721c-.433.169-.929.253-1.486.253Zm8.49-7.79v1.193h-4.17v-1.193h4.17Zm-3.052-1.83h1.486v7.224c0 .288.044.506.13.651a.674.674 0 0 0 .333.294c.139.049.29.074.452.074a1.7 1.7 0 0 0 .313-.025l.21-.039.268 1.228a2.509 2.509 0 0 1-.368.099 2.92 2.92 0 0 1-.597.06 2.625 2.625 0 0 1-1.094-.209 1.877 1.877 0 0 1-.82-.676c-.209-.305-.313-.688-.313-1.149v-7.532Zm8.261 1.83v1.193h-4.17v-1.193h4.17Zm-3.052-1.83h1.486v7.224c0 .288.043.506.13.651a.674.674 0 0 0 .333.294c.139.049.29.074.452.074a1.7 1.7 0 0 0 .313-.025l.21-.039.268 1.228a2.509 2.509 0 0 1-.368.099 2.92 2.92 0 0 1-.597.06 2.625 2.625 0 0 1-1.094-.209 1.877 1.877 0 0 1-.82-.676c-.209-.305-.313-.688-.313-1.149v-7.532ZM71.644 134v-7.636h1.486V134h-1.486Zm.75-8.814a.947.947 0 0 1-.666-.259.84.84 0 0 1-.273-.626c0-.246.091-.454.273-.627a.938.938 0 0 1 .666-.263.92.92 0 0 1 .662.263.825.825 0 0 1 .278.627c0 .242-.093.45-.278.626a.93.93 0 0 1-.662.259Zm4.223 4.28V134H75.13v-7.636h1.427v1.243h.094c.176-.405.451-.729.826-.975.378-.245.853-.368 1.427-.368.52 0 .976.11 1.367.329.39.215.694.537.91.964.215.428.323.956.323 1.586V134h-1.487v-4.678c0-.553-.144-.986-.432-1.298-.289-.314-.685-.472-1.188-.472-.345 0-.652.075-.92.224a1.61 1.61 0 0 0-.632.656c-.152.285-.228.63-.228 1.034Zm10.082 7.557c-.606 0-1.129-.08-1.566-.239-.434-.159-.789-.369-1.064-.631a2.659 2.659 0 0 1-.616-.86l1.277-.527c.09.146.21.3.358.462.153.166.358.307.617.423.262.116.598.174 1.009.174.563 0 1.03-.138 1.397-.413.368-.272.552-.706.552-1.302v-1.502h-.095c-.09.163-.218.343-.387.542a2.097 2.097 0 0 1-.686.517c-.292.146-.672.219-1.139.219a3.179 3.179 0 0 1-1.63-.423c-.481-.285-.862-.704-1.144-1.257-.279-.557-.418-1.242-.418-2.054 0-.812.138-1.508.413-2.088.278-.58.66-1.024 1.143-1.332a2.97 2.97 0 0 1 1.646-.468c.474 0 .857.08 1.148.239.292.156.52.338.681.547.166.209.294.393.383.552h.11v-1.238h1.456v7.805c0 .657-.152 1.195-.457 1.616a2.69 2.69 0 0 1-1.238.935c-.517.202-1.1.303-1.75.303Zm-.015-4.37c.428 0 .789-.099 1.084-.298a1.86 1.86 0 0 0 .676-.865c.156-.378.234-.831.234-1.358 0-.513-.076-.966-.229-1.357a2.019 2.019 0 0 0-.671-.915c-.295-.222-.66-.333-1.094-.333-.447 0-.82.116-1.118.348a2.103 2.103 0 0 0-.677.935 3.71 3.71 0 0 0-.223 1.322c0 .501.076.94.228 1.318.153.378.378.673.676.885.302.212.673.318 1.114.318Zm11.176-4.425-1.347.239a1.592 1.592 0 0 0-.269-.492 1.322 1.322 0 0 0-.487-.383c-.205-.1-.462-.149-.77-.149-.421 0-.773.094-1.054.283-.282.186-.423.426-.423.721a.76.76 0 0 0 .283.616c.19.156.494.284.915.383l1.213.279c.703.162 1.227.412 1.571.75.345.338.517.778.517 1.318 0 .457-.132.865-.397 1.223-.262.355-.628.633-1.099.835-.467.202-1.01.303-1.626.303-.855 0-1.552-.182-2.093-.546-.54-.368-.871-.89-.994-1.567l1.437-.218c.09.374.273.658.552.85.278.189.64.283 1.088.283.488 0 .877-.101 1.169-.303.291-.206.437-.456.437-.751a.78.78 0 0 0-.268-.601c-.176-.163-.446-.285-.81-.368l-1.293-.284c-.713-.162-1.24-.421-1.581-.775-.338-.355-.507-.804-.507-1.347 0-.451.126-.846.377-1.184.252-.338.6-.601 1.044-.79.445-.192.953-.289 1.527-.289.825 0 1.475.179 1.949.537.474.355.787.831.94 1.427Z"/>
      <path fill="#64748B" d="M187.277 133.196c-.347 0-.665-.085-.955-.255a1.977 1.977 0 0 1-.69-.691 1.85 1.85 0 0 1-.256-.954c0-.35.086-.668.256-.955.171-.29.401-.521.69-.694.29-.174.608-.26.955-.26h.937v-1.509h-.937c-.347 0-.665-.085-.955-.256a1.93 1.93 0 0 1-.69-.686 1.857 1.857 0 0 1-.256-.958c0-.35.086-.668.256-.955a1.93 1.93 0 0 1 .69-.686c.29-.173.608-.26.955-.26.349 0 .668.087.955.26.289.17.519.399.69.686.173.287.26.605.26.955v.929h1.513v-.929c0-.35.085-.668.255-.955.171-.287.399-.516.686-.686.29-.173.61-.26.959-.26.35 0 .668.087.955.26.287.17.515.399.686.686.17.287.255.605.255.955 0 .349-.085.669-.255.958a1.935 1.935 0 0 1-.686.686 1.83 1.83 0 0 1-.955.256h-.933v1.509h.933c.35 0 .668.086.955.26.287.173.515.404.686.694.17.287.255.605.255.955 0 .346-.085.665-.255.954a1.982 1.982 0 0 1-.686.691c-.287.17-.605.255-.955.255-.349 0-.669-.085-.959-.255a1.982 1.982 0 0 1-.686-.691 1.85 1.85 0 0 1-.255-.954v-.938h-1.513v.938c0 .346-.087.665-.26.954a1.977 1.977 0 0 1-.69.691 1.84 1.84 0 0 1-.955.255Zm0-.971a.941.941 0 0 0 .81-.461.894.894 0 0 0 .127-.468v-.938h-.937a.95.95 0 0 0-.81.465.927.927 0 0 0-.123.473.92.92 0 0 0 .933.929Zm0-5.318h.937v-.929a.88.88 0 0 0-.127-.469.957.957 0 0 0-.341-.337.907.907 0 0 0-.469-.123.923.923 0 0 0-.469.123.905.905 0 0 0-.464.806.93.93 0 0 0 .123.473.96.96 0 0 0 .341.332.924.924 0 0 0 .469.124Zm4.385 0h.933a.908.908 0 0 0 .801-.456.895.895 0 0 0 .128-.473.872.872 0 0 0-.128-.469.907.907 0 0 0-.801-.46.913.913 0 0 0-.809.46.896.896 0 0 0-.124.469v.929Zm.933 5.318a.898.898 0 0 0 .801-.461.886.886 0 0 0 .128-.468.893.893 0 0 0-.128-.473.917.917 0 0 0-.801-.465h-.933v.938c0 .17.041.326.124.468a.92.92 0 0 0 .809.461Zm-3.413-2.838h1.513v-1.509h-1.513v1.509Zm7.725-.533 5.262-5.263 5.267 5.263h-2.676V133h-5.182v-4.146h-2.671Zm2.22-.869h1.491v4.146h3.107v-4.146h1.491l-3.047-3.047-3.042 3.047ZM209.428 133v-8.727h3.196c.619 0 1.132.102 1.538.307.406.202.71.476.912.822.202.344.302.732.302 1.164 0 .363-.066.67-.2.92a1.646 1.646 0 0 1-.537.597 2.397 2.397 0 0 1-.733.324v.085c.29.014.573.108.848.281.279.17.509.413.691.729.181.315.272.699.272 1.15 0 .446-.105.847-.315 1.202-.207.352-.528.632-.963.839-.435.205-.99.307-1.666.307h-3.345Zm1.316-1.129h1.901c.631 0 1.082-.122 1.355-.366a1.18 1.18 0 0 0 .409-.917c0-.275-.07-.528-.209-.758a1.491 1.491 0 0 0-.596-.55 1.918 1.918 0 0 0-.912-.204h-1.948v2.795Zm0-3.822h1.765c.295 0 .561-.057.796-.171.239-.114.428-.273.567-.477.142-.208.213-.452.213-.733 0-.361-.126-.663-.379-.908-.253-.244-.641-.366-1.163-.366h-1.799v2.655Z"/>
      <path fill="#fff" d="M11 145h214v32H11z"/>
      <path stroke="#334155" stroke-linecap="round" stroke-linejoin="round" stroke-width="2" d="M32.333 155.667H21.667c-.737 0-1.334.597-1.334 1.333v8c0 .737.597 1.334 1.334 1.334h10.666c.737 0 1.334-.597 1.334-1.334v-8c0-.736-.597-1.333-1.334-1.333Z"/>
      <path stroke="#475569" stroke-linecap="round" stroke-linejoin="round" stroke-width="2" d="M25.667 158.334h0m2.666 0h0m-4 2.666h0M27 161h0m-3.333 2.667h6.666"/>
      <path fill="#334155" d="M44.119 166v-10.182h1.536v4.863h.124l4.27-4.863h1.935l-4.107 4.584L52 166h-1.85l-3.291-4.549-1.203 1.382V166H44.12Zm11.908.154c-.753 0-1.4-.16-1.944-.482a3.27 3.27 0 0 1-1.253-1.367c-.292-.59-.437-1.281-.437-2.073 0-.782.145-1.472.437-2.068a3.39 3.39 0 0 1 1.233-1.397c.53-.335 1.15-.503 1.86-.503.43 0 .848.072 1.252.214a3.04 3.04 0 0 1 1.089.671c.322.305.575.701.76 1.189.186.484.28 1.072.28 1.765v.527h-6.071v-1.114h4.613c0-.391-.08-.738-.238-1.039a1.806 1.806 0 0 0-.671-.721 1.873 1.873 0 0 0-1.005-.264c-.417 0-.782.103-1.093.309a2.067 2.067 0 0 0-.716.795 2.298 2.298 0 0 0-.249 1.059v.87c0 .511.09.945.269 1.303.182.358.435.631.76.82.325.186.705.278 1.139.278.281 0 .538-.039.77-.119a1.598 1.598 0 0 0 .99-.969l1.407.253a2.553 2.553 0 0 1-.607 1.089 2.951 2.951 0 0 1-1.089.721c-.434.169-.93.253-1.486.253Zm5.646 2.71c-.222 0-.424-.018-.606-.055a1.89 1.89 0 0 1-.408-.109l.358-1.218c.272.073.514.104.726.094a.87.87 0 0 0 .562-.238c.165-.15.311-.393.437-.731l.184-.507-2.794-7.736h1.591l1.934 5.926h.08l1.934-5.926h1.595l-3.147 8.655a3.452 3.452 0 0 1-.556 1.01 2.163 2.163 0 0 1-.806.626 2.638 2.638 0 0 1-1.084.209Zm7.11-2.864v-10.182h1.486v3.784h.09c.086-.159.21-.343.373-.552a2.11 2.11 0 0 1 .676-.547c.288-.159.67-.239 1.143-.239a2.98 2.98 0 0 1 1.65.468c.485.311.864.76 1.14 1.347.278.587.417 1.293.417 2.118s-.138 1.533-.413 2.123c-.275.587-.653 1.039-1.133 1.357-.48.315-1.03.472-1.646.472-.464 0-.844-.077-1.138-.233a2.155 2.155 0 0 1-.686-.547 4.18 4.18 0 0 1-.383-.557h-.125V166h-1.451Zm1.456-3.818c0 .537.078 1.008.234 1.412.156.404.381.721.676.95.295.225.656.338 1.084.338.444 0 .815-.118 1.114-.353a2.2 2.2 0 0 0 .676-.97c.156-.407.233-.866.233-1.377 0-.504-.076-.956-.228-1.357a2.079 2.079 0 0 0-.676-.95c-.299-.232-.672-.348-1.119-.348-.43 0-.796.111-1.094.333-.295.222-.518.532-.671.93-.152.398-.229.862-.229 1.392Zm10.405 3.972c-.716 0-1.341-.164-1.875-.492a3.316 3.316 0 0 1-1.243-1.377c-.294-.59-.442-1.279-.442-2.068 0-.792.147-1.485.442-2.078a3.306 3.306 0 0 1 1.243-1.382c.534-.328 1.159-.493 1.875-.493s1.34.165 1.874.493c.534.328.948.788 1.243 1.382.295.593.442 1.286.442 2.078 0 .789-.147 1.478-.442 2.068a3.317 3.317 0 0 1-1.243 1.377c-.534.328-1.158.492-1.874.492Zm.005-1.247c.464 0 .848-.123 1.153-.368a2.16 2.16 0 0 0 .676-.98c.15-.407.224-.857.224-1.347a3.88 3.88 0 0 0-.224-1.342 2.192 2.192 0 0 0-.676-.99c-.305-.248-.69-.373-1.153-.373-.468 0-.856.125-1.164.373a2.225 2.225 0 0 0-.68.99 3.954 3.954 0 0 0-.22 1.342c0 .49.073.94.22 1.347.148.408.375.734.68.98.308.245.696.368 1.164.368Zm7.436 1.262c-.484 0-.921-.089-1.313-.268a2.208 2.208 0 0 1-.93-.791c-.225-.344-.337-.767-.337-1.267 0-.431.083-.786.248-1.064.166-.279.39-.499.671-.662.282-.162.597-.285.945-.367a9.339 9.339 0 0 1 1.064-.189l1.113-.13c.286-.036.493-.094.622-.174.13-.079.194-.208.194-.387v-.035c0-.434-.123-.771-.368-1.009-.242-.239-.603-.358-1.084-.358-.5 0-.895.111-1.183.333-.285.218-.482.462-.592.731l-1.397-.319c.166-.464.408-.838.726-1.123a2.947 2.947 0 0 1 1.109-.627 4.346 4.346 0 0 1 1.317-.199c.305 0 .628.037.97.11.344.069.666.199.964.388.302.189.549.459.741.81.192.348.288.8.288 1.357V166h-1.451v-1.044h-.06a2.11 2.11 0 0 1-.433.567 2.28 2.28 0 0 1-.74.462c-.302.123-.663.184-1.084.184Zm.323-1.193c.411 0 .762-.081 1.054-.243a1.71 1.71 0 0 0 .671-.637 1.65 1.65 0 0 0 .234-.85v-.984c-.053.053-.156.102-.308.149a4.81 4.81 0 0 1-.513.114l-.561.085-.458.059a3.728 3.728 0 0 0-.79.184 1.36 1.36 0 0 0-.567.373c-.14.159-.209.371-.209.636 0 .368.136.647.408.836.272.185.618.278 1.039.278ZM93.833 166v-7.636h1.437v1.213h.08c.139-.411.384-.734.735-.969a2.103 2.103 0 0 1 1.204-.358 5.97 5.97 0 0 1 .63.034v1.422a2.635 2.635 0 0 0-.317-.054 2.935 2.935 0 0 0-.458-.035c-.351 0-.664.074-.94.223a1.663 1.663 0 0 0-.884 1.497V166h-1.487Zm7.959.149a2.958 2.958 0 0 1-1.651-.472c-.48-.318-.858-.77-1.134-1.357-.271-.59-.407-1.298-.407-2.123 0-.825.137-1.531.412-2.118.279-.587.66-1.036 1.144-1.347a2.97 2.97 0 0 1 1.645-.468c.474 0 .856.08 1.144.239.292.156.517.338.676.547.162.209.288.393.378.552h.089v-3.784h1.487V166h-1.452v-1.188h-.124a4.02 4.02 0 0 1-.388.557 2.154 2.154 0 0 1-.686.547c-.292.156-.669.233-1.133.233Zm.328-1.267c.427 0 .788-.113 1.083-.338.299-.229.524-.546.677-.95.155-.404.233-.875.233-1.412 0-.53-.076-.994-.228-1.392-.153-.398-.377-.708-.672-.93-.295-.222-.659-.333-1.093-.333-.448 0-.821.116-1.119.348a2.127 2.127 0 0 0-.676.95 3.874 3.874 0 0 0-.224 1.357c0 .511.076.97.229 1.377.152.408.378.731.676.97.302.235.673.353 1.114.353Zm15.004-4.654-1.347.239a1.598 1.598 0 0 0-.269-.492 1.322 1.322 0 0 0-.487-.383c-.206-.1-.462-.149-.771-.149-.421 0-.772.094-1.054.283-.281.186-.422.426-.422.721 0 .255.094.461.283.616.189.156.494.284.915.383l1.213.279c.703.162 1.226.412 1.571.75s.517.778.517 1.318c0 .457-.132.865-.398 1.223-.261.355-.628.633-1.098.835-.468.202-1.01.303-1.626.303-.855 0-1.553-.182-2.093-.546-.54-.368-.872-.89-.994-1.567l1.436-.218c.09.374.274.658.552.85.279.189.642.283 1.089.283.487 0 .877-.101 1.168-.303.292-.206.438-.456.438-.751a.78.78 0 0 0-.269-.601c-.175-.163-.445-.285-.81-.368l-1.293-.284c-.712-.162-1.239-.421-1.581-.775-.338-.355-.507-.804-.507-1.347 0-.451.126-.846.378-1.184.252-.338.6-.601 1.044-.79.444-.192.953-.289 1.526-.289.826 0 1.475.179 1.949.537.474.355.787.831.94 1.427Zm3.27 1.238V166h-1.487v-10.182h1.467v3.789h.095c.179-.411.452-.738.82-.98.368-.242.848-.363 1.442-.363.523 0 .981.108 1.372.324.394.215.699.537.915.964.218.424.328.955.328 1.591V166h-1.487v-4.678c0-.56-.144-.994-.432-1.303-.289-.311-.69-.467-1.203-.467-.352 0-.667.075-.945.224a1.613 1.613 0 0 0-.651.656c-.156.285-.234.63-.234 1.034Zm10.152 4.688c-.716 0-1.341-.164-1.874-.492a3.315 3.315 0 0 1-1.243-1.377c-.295-.59-.443-1.279-.443-2.068 0-.792.148-1.485.443-2.078a3.305 3.305 0 0 1 1.243-1.382c.533-.328 1.158-.493 1.874-.493.716 0 1.341.165 1.874.493.534.328.948.788 1.243 1.382.295.593.443 1.286.443 2.078 0 .789-.148 1.478-.443 2.068a3.315 3.315 0 0 1-1.243 1.377c-.533.328-1.158.492-1.874.492Zm.005-1.247c.464 0 .848-.123 1.153-.368.305-.246.531-.572.677-.98.149-.407.223-.857.223-1.347a3.88 3.88 0 0 0-.223-1.342 2.193 2.193 0 0 0-.677-.99c-.305-.248-.689-.373-1.153-.373-.467 0-.855.125-1.163.373a2.234 2.234 0 0 0-.682.99 3.977 3.977 0 0 0-.218 1.342c0 .49.073.94.218 1.347.15.408.377.734.682.98.308.245.696.368 1.163.368Zm5.214 1.093v-7.636h1.437v1.213h.079c.139-.411.385-.734.736-.969a2.104 2.104 0 0 1 1.203-.358 5.958 5.958 0 0 1 .632.034v1.422a2.653 2.653 0 0 0-.319-.054 2.93 2.93 0 0 0-.457-.035c-.351 0-.665.074-.94.223a1.667 1.667 0 0 0-.885 1.497V166h-1.486Zm9.389-7.636v1.193h-4.171v-1.193h4.171Zm-3.053-1.83h1.487v7.224c0 .288.043.506.129.651a.672.672 0 0 0 .333.294c.139.049.29.074.452.074.12 0 .224-.008.314-.025l.209-.039.268 1.228a2.507 2.507 0 0 1-.368.099 2.92 2.92 0 0 1-.597.06 2.621 2.621 0 0 1-1.093-.209 1.88 1.88 0 0 1-.821-.676c-.208-.305-.313-.688-.313-1.149v-7.532Zm7.832 9.62c-.739 0-1.376-.167-1.909-.502a3.315 3.315 0 0 1-1.223-1.397c-.285-.593-.428-1.272-.428-2.038 0-.776.146-1.46.438-2.053a3.335 3.335 0 0 1 1.233-1.397c.53-.335 1.155-.503 1.874-.503.58 0 1.097.108 1.551.324.454.212.82.51 1.099.895.281.384.449.833.502 1.347h-1.447a1.733 1.733 0 0 0-.547-.925c-.282-.258-.659-.388-1.133-.388-.415 0-.778.11-1.089.328-.308.216-.549.524-.721.925-.172.398-.259.869-.259 1.412 0 .557.085 1.037.254 1.442.169.404.408.717.716.939.311.223.678.334 1.099.334.281 0 .537-.052.765-.155a1.56 1.56 0 0 0 .582-.452c.159-.196.27-.431.333-.706h1.447a2.818 2.818 0 0 1-.482 1.323 2.789 2.789 0 0 1-1.079.914c-.448.222-.973.333-1.576.333Zm9.564-3.321v-4.469h1.491V166h-1.461v-1.322h-.08a2.383 2.383 0 0 1-.845 1.019c-.385.268-.863.403-1.437.403-.49 0-.925-.108-1.302-.323a2.265 2.265 0 0 1-.885-.97c-.212-.427-.319-.956-.319-1.586v-4.857h1.487v4.678c0 .521.144.935.432 1.243.289.308.663.462 1.124.462.278 0 .555-.069.83-.208.279-.14.509-.35.691-.632.186-.281.277-.639.274-1.074Zm7.053-4.469v1.193h-4.171v-1.193h4.171Zm-3.052-1.83h1.486v7.224c0 .288.043.506.129.651a.678.678 0 0 0 .334.294c.139.049.29.074.452.074.119 0 .224-.008.313-.025l.209-.039.268 1.228a2.488 2.488 0 0 1-.367.099c-.16.037-.358.056-.597.06a2.626 2.626 0 0 1-1.094-.209 1.877 1.877 0 0 1-.82-.676c-.209-.305-.313-.688-.313-1.149v-7.532Zm10.296 3.694-1.347.239a1.598 1.598 0 0 0-.269-.492 1.322 1.322 0 0 0-.487-.383c-.206-.1-.462-.149-.771-.149-.421 0-.772.094-1.054.283-.281.186-.422.426-.422.721 0 .255.094.461.283.616.189.156.494.284.915.383l1.213.279c.703.162 1.226.412 1.571.75s.517.778.517 1.318c0 .457-.133.865-.398 1.223-.262.355-.628.633-1.098.835-.468.202-1.01.303-1.626.303-.855 0-1.553-.182-2.093-.546-.54-.368-.872-.89-.995-1.567l1.437-.218c.09.374.274.658.552.85.279.189.641.283 1.089.283.487 0 .877-.101 1.168-.303.292-.206.438-.456.438-.751a.78.78 0 0 0-.269-.601c-.175-.163-.446-.285-.81-.368l-1.293-.284c-.712-.162-1.239-.421-1.581-.775-.338-.355-.507-.804-.507-1.347 0-.451.126-.846.378-1.184.252-.338.6-.601 1.044-.79.444-.192.953-.289 1.526-.289.826 0 1.475.179 1.949.537.474.355.787.831.94 1.427Z"/>
      <path fill="#64748B" d="M187.277 165.196c-.347 0-.665-.085-.955-.255a1.977 1.977 0 0 1-.69-.691 1.85 1.85 0 0 1-.256-.954c0-.35.086-.668.256-.955.171-.29.401-.521.69-.694.29-.174.608-.26.955-.26h.937v-1.509h-.937c-.347 0-.665-.085-.955-.256a1.93 1.93 0 0 1-.69-.686 1.857 1.857 0 0 1-.256-.958c0-.35.086-.668.256-.955a1.93 1.93 0 0 1 .69-.686c.29-.173.608-.26.955-.26.349 0 .668.087.955.26.289.17.519.399.69.686.173.287.26.605.26.955v.929h1.513v-.929c0-.35.085-.668.255-.955.171-.287.399-.516.686-.686.29-.173.61-.26.959-.26.35 0 .668.087.955.26.287.17.515.399.686.686.17.287.255.605.255.955 0 .349-.085.669-.255.958a1.935 1.935 0 0 1-.686.686 1.83 1.83 0 0 1-.955.256h-.933v1.509h.933c.35 0 .668.086.955.26.287.173.515.404.686.694.17.287.255.605.255.955 0 .346-.085.665-.255.954a1.982 1.982 0 0 1-.686.691c-.287.17-.605.255-.955.255-.349 0-.669-.085-.959-.255a1.982 1.982 0 0 1-.686-.691 1.85 1.85 0 0 1-.255-.954v-.938h-1.513v.938c0 .346-.087.665-.26.954a1.977 1.977 0 0 1-.69.691 1.84 1.84 0 0 1-.955.255Zm0-.971a.941.941 0 0 0 .81-.461.894.894 0 0 0 .127-.468v-.938h-.937a.95.95 0 0 0-.81.465.927.927 0 0 0-.123.473.92.92 0 0 0 .933.929Zm0-5.318h.937v-.929a.88.88 0 0 0-.127-.469.957.957 0 0 0-.341-.337.907.907 0 0 0-.469-.123.923.923 0 0 0-.469.123.905.905 0 0 0-.464.806.93.93 0 0 0 .123.473.96.96 0 0 0 .341.332.924.924 0 0 0 .469.124Zm4.385 0h.933a.908.908 0 0 0 .801-.456.895.895 0 0 0 .128-.473.872.872 0 0 0-.128-.469.907.907 0 0 0-.801-.46.913.913 0 0 0-.809.46.896.896 0 0 0-.124.469v.929Zm.933 5.318a.898.898 0 0 0 .801-.461.886.886 0 0 0 .128-.468.893.893 0 0 0-.128-.473.917.917 0 0 0-.801-.465h-.933v.938c0 .17.041.326.124.468a.92.92 0 0 0 .809.461Zm-3.413-2.838h1.513v-1.509h-1.513v1.509Zm7.725-.533 5.262-5.263 5.267 5.263h-2.676V165h-5.182v-4.146h-2.671Zm2.22-.869h1.491v4.146h3.107v-4.146h1.491l-3.047-3.047-3.042 3.047ZM209.428 165v-8.727h3.196c.619 0 1.132.102 1.538.307.406.202.71.476.912.822.202.344.302.732.302 1.164 0 .363-.066.67-.2.92a1.646 1.646 0 0 1-.537.597 2.397 2.397 0 0 1-.733.324v.085c.29.014.573.108.848.281.279.17.509.413.691.729.181.315.272.699.272 1.15 0 .446-.105.847-.315 1.202-.207.352-.528.632-.963.839-.435.205-.99.307-1.666.307h-3.345Zm1.316-1.129h1.901c.631 0 1.082-.122 1.355-.366a1.18 1.18 0 0 0 .409-.917c0-.275-.07-.528-.209-.758a1.491 1.491 0 0 0-.596-.55 1.918 1.918 0 0 0-.912-.204h-1.948v2.795Zm0-3.822h1.765c.295 0 .561-.057.796-.171.239-.114.428-.273.567-.477.142-.208.213-.452.213-.733 0-.361-.126-.663-.379-.908-.253-.244-.641-.366-1.163-.366h-1.799v2.655Z"/>
      <path stroke="#F1F5F9" d="M6 181.5h224"/>
      <path fill="#fff" d="M6 182h224v106H6z"/>
      <path fill="#fff" d="M11 187h214v32H11z"/>
      <path stroke="#334155" stroke-linecap="round" stroke-linejoin="round" stroke-width="2" d="M29.667 209v-1.333A2.668 2.668 0 0 0 27 205h-4a2.667 2.667 0 0 0-2.667 2.667V209M25 202.334A2.667 2.667 0 1 0 25 197a2.667 2.667 0 0 0 0 5.334Z"/>
      <path stroke="#000" stroke-linecap="round" stroke-linejoin="round" stroke-width="2" d="M33.667 209v-1.333a2.667 2.667 0 0 0-2-2.58m-2-8a2.665 2.665 0 0 1 1.445 4.218 2.667 2.667 0 0 1-1.445.949"/>
      <path fill="#334155" d="M43.617 199.141v-1.323h7.88v1.323H48.32V208h-1.532v-8.859h-3.171Zm11.685 9.013c-.752 0-1.4-.16-1.944-.482a3.27 3.27 0 0 1-1.252-1.367c-.292-.59-.438-1.281-.438-2.073 0-.782.146-1.472.438-2.068a3.39 3.39 0 0 1 1.232-1.397c.53-.335 1.15-.503 1.86-.503.43 0 .848.072 1.253.214a3.04 3.04 0 0 1 1.088.671c.322.305.575.701.761 1.189.186.484.279 1.072.279 1.765v.527h-6.07v-1.114h4.613c0-.391-.08-.738-.239-1.039a1.806 1.806 0 0 0-.671-.721 1.873 1.873 0 0 0-1.004-.264c-.418 0-.782.103-1.094.309a2.067 2.067 0 0 0-.716.795 2.298 2.298 0 0 0-.248 1.059v.87c0 .511.089.945.268 1.303.182.358.436.631.76.82.325.186.705.278 1.14.278.28 0 .538-.039.77-.119a1.598 1.598 0 0 0 .99-.969l1.406.253a2.553 2.553 0 0 1-.607 1.089 2.951 2.951 0 0 1-1.088.721c-.434.169-.93.253-1.487.253Zm7.148.015c-.484 0-.921-.089-1.312-.268a2.208 2.208 0 0 1-.93-.791c-.225-.344-.338-.767-.338-1.267 0-.431.083-.786.248-1.064.166-.279.39-.499.672-.662.281-.162.596-.285.944-.367a9.339 9.339 0 0 1 1.064-.189l1.114-.13c.285-.036.492-.094.621-.174.13-.079.194-.208.194-.387v-.035c0-.434-.123-.771-.368-1.009-.242-.239-.603-.358-1.084-.358-.5 0-.895.111-1.183.333-.285.218-.482.462-.591.731l-1.398-.319c.166-.464.408-.838.726-1.123a2.946 2.946 0 0 1 1.109-.627 4.346 4.346 0 0 1 1.317-.199c.305 0 .629.037.97.11.345.069.666.199.965.388.301.189.548.459.74.81.192.348.289.8.289 1.357V208h-1.452v-1.044h-.06c-.096.192-.24.381-.432.567-.193.186-.44.34-.741.462-.302.123-.663.184-1.084.184Zm.323-1.193c.411 0 .763-.081 1.054-.243a1.71 1.71 0 0 0 .671-.637c.156-.265.234-.548.234-.85v-.984c-.053.053-.156.102-.308.149-.15.043-.32.081-.512.114l-.562.085-.457.059a3.727 3.727 0 0 0-.79.184 1.36 1.36 0 0 0-.568.373c-.139.159-.208.371-.208.636 0 .368.135.647.407.836.272.185.618.278 1.04.278ZM68.198 208v-7.636h1.427v1.243h.095c.159-.421.42-.749.78-.985.362-.238.794-.358 1.298-.358.51 0 .938.12 1.283.358a2.1 2.1 0 0 1 .77.985h.08c.182-.408.472-.733.87-.975.397-.245.871-.368 1.422-.368.692 0 1.258.218 1.695.652.44.434.661 1.089.661 1.964V208h-1.486v-4.981c0-.517-.141-.892-.423-1.124a1.537 1.537 0 0 0-1.01-.348c-.483 0-.86.149-1.128.448-.268.295-.402.674-.402 1.138V208h-1.482v-5.076c0-.414-.13-.747-.388-.999s-.595-.378-1.009-.378c-.282 0-.542.075-.78.224-.236.146-.426.35-.572.611a1.874 1.874 0 0 0-.214.91V208h-1.487Z"/>
      <path fill="#fff" d="M11 219h214v32H11z"/>
      <path stroke="#334155" stroke-linecap="round" stroke-linejoin="round" stroke-width="2" d="M32.333 230.334H21.667c-.737 0-1.334.597-1.334 1.333v6.667c0 .736.597 1.333 1.334 1.333h10.666c.737 0 1.334-.597 1.334-1.333v-6.667c0-.736-.597-1.333-1.334-1.333Zm-12 3.333h13.334"/>
      <path fill="#334155" d="M45.655 229.818V240h-1.536v-10.182h1.536Zm3.604 5.648V240h-1.486v-7.636H49.2v1.243h.094c.176-.405.45-.729.825-.975.378-.245.854-.368 1.427-.368.52 0 .976.11 1.367.329.392.215.695.537.91.964.216.428.323.956.323 1.586V240H52.66v-4.678c0-.553-.144-.986-.433-1.298-.288-.314-.684-.472-1.188-.472-.345 0-.651.075-.92.224a1.61 1.61 0 0 0-.631.656c-.152.285-.229.63-.229 1.034Zm13.14-3.102L59.63 240h-1.59l-2.775-7.636h1.596l1.934 5.876h.08l1.928-5.876H62.4ZM63.796 240v-7.636h1.487V240h-1.487Zm.75-8.814a.947.947 0 0 1-.665-.259.84.84 0 0 1-.274-.626.83.83 0 0 1 .274-.627.938.938 0 0 1 .666-.263.92.92 0 0 1 .661.263.825.825 0 0 1 .279.627c0 .242-.093.45-.279.626a.93.93 0 0 1-.661.259Zm6.301 1.178v1.193h-4.171v-1.193h4.171Zm-3.052-1.83h1.486v7.224c0 .288.043.506.13.651a.674.674 0 0 0 .332.294c.14.049.29.074.453.074a1.7 1.7 0 0 0 .313-.025l.209-.039.268 1.228a2.505 2.505 0 0 1-.368.099 2.917 2.917 0 0 1-.596.06 2.624 2.624 0 0 1-1.094-.209 1.876 1.876 0 0 1-.82-.676c-.209-.305-.313-.688-.313-1.149v-7.532Zm7.906 9.62c-.753 0-1.4-.16-1.944-.482a3.27 3.27 0 0 1-1.253-1.367c-.292-.59-.438-1.281-.438-2.073 0-.782.146-1.472.438-2.068a3.39 3.39 0 0 1 1.233-1.397c.53-.335 1.15-.503 1.86-.503.43 0 .848.072 1.252.214a3.04 3.04 0 0 1 1.089.671c.321.305.575.701.76 1.189.186.484.279 1.072.279 1.765v.527h-6.07v-1.114h4.613c0-.391-.08-.738-.238-1.039a1.806 1.806 0 0 0-.672-.721 1.873 1.873 0 0 0-1.004-.264 1.94 1.94 0 0 0-1.094.309 2.068 2.068 0 0 0-.716.795 2.298 2.298 0 0 0-.248 1.059v.87c0 .511.09.945.268 1.303.183.358.436.631.761.82.325.186.704.278 1.139.278.281 0 .538-.039.77-.119a1.598 1.598 0 0 0 .99-.969l1.406.253a2.553 2.553 0 0 1-.606 1.089 2.95 2.95 0 0 1-1.089.721c-.434.169-.93.253-1.486.253Zm13.468-3.321v-4.469h1.491V240h-1.462v-1.322h-.079a2.382 2.382 0 0 1-.845 1.019c-.385.268-.864.403-1.437.403-.49 0-.925-.108-1.303-.323a2.27 2.27 0 0 1-.885-.97c-.212-.427-.318-.956-.318-1.586v-4.857h1.487v4.678c0 .521.144.935.432 1.243.289.308.663.462 1.124.462.278 0 .555-.069.83-.208.279-.14.509-.35.691-.632.186-.281.277-.639.274-1.074Zm9.21-2.605-1.347.239a1.59 1.59 0 0 0-.268-.492 1.322 1.322 0 0 0-.487-.383c-.206-.1-.463-.149-.77-.149-.422 0-.773.094-1.055.283-.281.186-.422.426-.422.721 0 .255.094.461.283.616.189.156.494.284.915.383l1.213.279c.703.162 1.226.412 1.57.75.346.338.518.778.518 1.318 0 .457-.133.865-.398 1.223-.262.355-.628.633-1.099.835-.467.202-1.009.303-1.625.303-.855 0-1.553-.182-2.093-.546-.54-.368-.872-.89-.995-1.567l1.437-.218c.09.374.274.658.552.85.278.189.641.283 1.089.283.487 0 .876-.101 1.168-.303.292-.206.438-.456.438-.751a.78.78 0 0 0-.269-.601c-.175-.163-.446-.285-.81-.368l-1.293-.284c-.712-.162-1.24-.421-1.58-.775-.339-.355-.508-.804-.508-1.347 0-.451.126-.846.378-1.184.252-.338.6-.601 1.044-.79.444-.192.953-.289 1.526-.289.826 0 1.475.179 1.95.537.473.355.786.831.939 1.427Zm5.076 5.926c-.753 0-1.401-.16-1.944-.482a3.265 3.265 0 0 1-1.253-1.367c-.292-.59-.438-1.281-.438-2.073 0-.782.146-1.472.438-2.068a3.39 3.39 0 0 1 1.233-1.397c.53-.335 1.15-.503 1.859-.503.431 0 .849.072 1.253.214.404.143.767.366 1.089.671.321.305.575.701.76 1.189.186.484.279 1.072.279 1.765v.527h-6.07v-1.114h4.613c0-.391-.079-.738-.238-1.039a1.81 1.81 0 0 0-.672-.721 1.87 1.87 0 0 0-1.004-.264c-.418 0-.782.103-1.094.309a2.069 2.069 0 0 0-.716.795 2.306 2.306 0 0 0-.248 1.059v.87c0 .511.089.945.268 1.303.183.358.436.631.761.82.325.186.704.278 1.138.278.282 0 .539-.039.771-.119a1.59 1.59 0 0 0 .989-.969l1.407.253a2.552 2.552 0 0 1-.606 1.089 2.953 2.953 0 0 1-1.089.721c-.434.169-.93.253-1.486.253Zm4.925-.154v-7.636h1.437v1.213h.079a1.85 1.85 0 0 1 .736-.969 2.104 2.104 0 0 1 1.203-.358 5.991 5.991 0 0 1 .632.034v1.422a2.664 2.664 0 0 0-.318-.054 2.943 2.943 0 0 0-.458-.035 1.94 1.94 0 0 0-.939.223 1.663 1.663 0 0 0-.885 1.497V240h-1.487Zm11.095-5.772-1.347.239a1.595 1.595 0 0 0-.268-.492 1.33 1.33 0 0 0-.487-.383c-.206-.1-.463-.149-.771-.149-.421 0-.772.094-1.054.283-.282.186-.423.426-.423.721 0 .255.095.461.284.616.189.156.494.284.915.383l1.213.279c.702.162 1.226.412 1.571.75.344.338.517.778.517 1.318 0 .457-.133.865-.398 1.223-.262.355-.628.633-1.099.835-.467.202-1.009.303-1.626.303-.855 0-1.552-.182-2.093-.546-.54-.368-.871-.89-.994-1.567l1.437-.218c.089.374.273.658.552.85.278.189.641.283 1.089.283.487 0 .876-.101 1.168-.303.292-.206.437-.456.437-.751a.779.779 0 0 0-.268-.601c-.176-.163-.446-.285-.81-.368l-1.293-.284c-.713-.162-1.24-.421-1.581-.775-.338-.355-.507-.804-.507-1.347 0-.451.126-.846.378-1.184.252-.338.6-.601 1.044-.79.444-.192.953-.289 1.526-.289.825 0 1.475.179 1.949.537.474.355.787.831.939 1.427Z"/>
      <path stroke="#334155" stroke-linecap="round" stroke-linejoin="round" stroke-width="1.333" d="m207 239 4-4-4-4"/>
      <path fill="#fff" d="M11 251h214v32H11z"/>
      <path stroke="#334155" stroke-linecap="round" stroke-linejoin="round" stroke-width="2" d="M27 262.334v9.333M22.333 267h9.334"/>
      <path fill="#334155" d="M52.337 261.818V272h-1.412l-5.176-7.467h-.094V272h-1.536v-10.182h1.422l5.18 7.478h.094v-7.478h1.522Zm5.412 10.336c-.752 0-1.4-.16-1.943-.482a3.27 3.27 0 0 1-1.253-1.367c-.292-.59-.438-1.281-.438-2.073 0-.782.146-1.472.438-2.068a3.39 3.39 0 0 1 1.233-1.397c.53-.335 1.15-.503 1.86-.503.43 0 .847.072 1.252.214a3.04 3.04 0 0 1 1.089.671c.321.305.575.701.76 1.189.186.484.279 1.072.279 1.765v.527h-6.07v-1.114h4.613c0-.391-.08-.738-.239-1.039a1.807 1.807 0 0 0-.67-.721 1.873 1.873 0 0 0-1.005-.264c-.418 0-.782.103-1.094.309a2.067 2.067 0 0 0-.716.795 2.298 2.298 0 0 0-.248 1.059v.87c0 .511.09.945.268 1.303.182.358.436.631.76.82.326.186.705.278 1.14.278.281 0 .538-.039.77-.119a1.597 1.597 0 0 0 .99-.969l1.406.253a2.554 2.554 0 0 1-.606 1.089 2.951 2.951 0 0 1-1.089.721c-.434.169-.93.253-1.486.253Zm6.568-.154-2.247-7.636h1.536l1.497 5.608h.074l1.501-5.608h1.537l1.491 5.583h.075l1.486-5.583h1.536L70.561 272h-1.516l-1.551-5.513h-.115L65.83 272h-1.512Zm17.167-7.636v1.193h-4.171v-1.193h4.17Zm-3.053-1.83h1.487v7.224c0 .288.043.506.13.651a.673.673 0 0 0 .332.294c.14.049.29.074.453.074a1.7 1.7 0 0 0 .313-.025l.209-.039.268 1.228a2.505 2.505 0 0 1-.368.099 2.918 2.918 0 0 1-.596.06 2.625 2.625 0 0 1-1.094-.209 1.876 1.876 0 0 1-.82-.676c-.21-.305-.314-.688-.314-1.149v-7.532Zm7.906 9.62c-.752 0-1.4-.16-1.944-.482a3.27 3.27 0 0 1-1.252-1.367c-.292-.59-.438-1.281-.438-2.073 0-.782.146-1.472.438-2.068a3.39 3.39 0 0 1 1.233-1.397c.53-.335 1.15-.503 1.859-.503.43 0 .848.072 1.253.214a3.04 3.04 0 0 1 1.089.671c.321.305.575.701.76 1.189.186.484.279 1.072.279 1.765v.527h-6.07v-1.114h4.613c0-.391-.08-.738-.239-1.039a1.807 1.807 0 0 0-.67-.721 1.873 1.873 0 0 0-1.005-.264c-.418 0-.782.103-1.094.309a2.068 2.068 0 0 0-.716.795 2.298 2.298 0 0 0-.248 1.059v.87c0 .511.09.945.268 1.303.182.358.436.631.76.82.326.186.705.278 1.14.278.281 0 .538-.039.77-.119a1.597 1.597 0 0 0 .99-.969l1.406.253a2.553 2.553 0 0 1-.606 1.089 2.95 2.95 0 0 1-1.09.721c-.433.169-.929.253-1.486.253Zm7.148.015c-.484 0-.921-.089-1.312-.268a2.208 2.208 0 0 1-.93-.791c-.225-.344-.338-.767-.338-1.267 0-.431.083-.786.249-1.064.165-.279.389-.499.67-.662.282-.162.597-.285.945-.367a9.339 9.339 0 0 1 1.064-.189l1.114-.13c.285-.036.492-.094.621-.174.13-.079.194-.208.194-.387v-.035c0-.434-.122-.771-.368-1.009-.242-.239-.603-.358-1.084-.358-.5 0-.894.111-1.183.333-.285.218-.482.462-.591.731l-1.397-.319c.165-.464.407-.838.726-1.123a2.947 2.947 0 0 1 1.108-.627 4.346 4.346 0 0 1 1.318-.199c.305 0 .628.037.97.11.344.069.665.199.964.388.301.189.548.459.74.81.193.348.289.8.289 1.357V272h-1.452v-1.044h-.06c-.096.192-.24.381-.432.567a2.28 2.28 0 0 1-.74.462c-.302.123-.664.184-1.085.184Zm.323-1.193c.411 0 .763-.081 1.054-.243a1.71 1.71 0 0 0 .672-.637 1.65 1.65 0 0 0 .233-.85v-.984c-.053.053-.156.102-.308.149a4.79 4.79 0 0 1-.512.114l-.562.085-.457.059a3.728 3.728 0 0 0-.79.184 1.36 1.36 0 0 0-.568.373c-.139.159-.208.371-.208.636 0 .368.136.647.407.836.272.185.618.278 1.04.278ZM99.234 272v-7.636h1.427v1.243h.094c.159-.421.419-.749.781-.985.361-.238.793-.358 1.297-.358.511 0 .938.12 1.283.358.348.239.605.567.77.985h.08c.182-.408.472-.733.87-.975.398-.245.872-.368 1.422-.368.693 0 1.258.218 1.695.652.441.434.661 1.089.661 1.964V272h-1.486v-4.981c0-.517-.141-.892-.423-1.124a1.535 1.535 0 0 0-1.009-.348c-.484 0-.86.149-1.129.448-.268.295-.402.674-.402 1.138V272h-1.482v-5.076c0-.414-.129-.747-.388-.999-.258-.252-.594-.378-1.009-.378-.282 0-.542.075-.78.224-.236.146-.426.35-.572.611a1.868 1.868 0 0 0-.214.91V272h-1.486Z"/>
      <path fill="#64748B" d="M187.277 271.196c-.347 0-.665-.085-.955-.255a1.977 1.977 0 0 1-.69-.691 1.85 1.85 0 0 1-.256-.954c0-.35.086-.668.256-.955.171-.29.401-.521.69-.694.29-.174.608-.26.955-.26h.937v-1.509h-.937c-.347 0-.665-.085-.955-.256a1.93 1.93 0 0 1-.69-.686 1.857 1.857 0 0 1-.256-.958c0-.35.086-.668.256-.955a1.93 1.93 0 0 1 .69-.686c.29-.173.608-.26.955-.26.349 0 .668.087.955.26.289.17.519.399.69.686.173.287.26.605.26.955v.929h1.513v-.929c0-.35.085-.668.255-.955.171-.287.399-.516.686-.686.29-.173.61-.26.959-.26.35 0 .668.087.955.26.287.17.515.399.686.686.17.287.255.605.255.955 0 .349-.085.669-.255.958a1.935 1.935 0 0 1-.686.686 1.83 1.83 0 0 1-.955.256h-.933v1.509h.933c.35 0 .668.086.955.26.287.173.515.404.686.694.17.287.255.605.255.955 0 .346-.085.665-.255.954a1.982 1.982 0 0 1-.686.691c-.287.17-.605.255-.955.255-.349 0-.669-.085-.959-.255a1.982 1.982 0 0 1-.686-.691 1.85 1.85 0 0 1-.255-.954v-.938h-1.513v.938c0 .346-.087.665-.26.954a1.977 1.977 0 0 1-.69.691 1.84 1.84 0 0 1-.955.255Zm0-.971a.941.941 0 0 0 .81-.461.894.894 0 0 0 .127-.468v-.938h-.937a.95.95 0 0 0-.81.465.927.927 0 0 0-.123.473.92.92 0 0 0 .933.929Zm0-5.318h.937v-.929a.88.88 0 0 0-.127-.469.957.957 0 0 0-.341-.337.907.907 0 0 0-.469-.123.923.923 0 0 0-.469.123.905.905 0 0 0-.464.806.93.93 0 0 0 .123.473.96.96 0 0 0 .341.332.924.924 0 0 0 .469.124Zm4.385 0h.933a.908.908 0 0 0 .801-.456.895.895 0 0 0 .128-.473.872.872 0 0 0-.128-.469.907.907 0 0 0-.801-.46.913.913 0 0 0-.809.46.896.896 0 0 0-.124.469v.929Zm.933 5.318a.898.898 0 0 0 .801-.461.886.886 0 0 0 .128-.468.893.893 0 0 0-.128-.473.917.917 0 0 0-.801-.465h-.933v.938c0 .17.041.326.124.468a.92.92 0 0 0 .809.461Zm-3.413-2.838h1.513v-1.509h-1.513v1.509Zm7.725-.533 5.262-5.263 5.267 5.263h-2.676V271h-5.182v-4.146h-2.671Zm2.22-.869h1.491v4.146h3.107v-4.146h1.491l-3.047-3.047-3.042 3.047ZM209.428 271v-8.727h3.196c.619 0 1.132.102 1.538.307.406.202.71.476.912.822.202.344.302.732.302 1.164 0 .363-.066.67-.2.92a1.646 1.646 0 0 1-.537.597 2.397 2.397 0 0 1-.733.324v.085c.29.014.573.108.848.281.279.17.509.413.691.729.181.315.272.699.272 1.15 0 .446-.105.847-.315 1.202-.207.352-.528.632-.963.839-.435.205-.99.307-1.666.307h-3.345Zm1.316-1.129h1.901c.631 0 1.082-.122 1.355-.366a1.18 1.18 0 0 0 .409-.917c0-.275-.07-.528-.209-.758a1.491 1.491 0 0 0-.596-.55 1.918 1.918 0 0 0-.912-.204h-1.948v2.795Zm0-3.822h1.765c.295 0 .561-.057.796-.171.239-.114.428-.273.567-.477.142-.208.213-.452.213-.733 0-.361-.126-.663-.379-.908-.253-.244-.641-.366-1.163-.366h-1.799v2.655Z"/>
      <path fill="#fff" d="M6 288h224v96H6z"/>
      <path fill="#fff" d="M11 288h214v32H11z"/>
      <path stroke="#334155" stroke-linecap="round" stroke-linejoin="round" stroke-width="2" d="M29.667 310v-1.333A2.668 2.668 0 0 0 27 306h-4a2.667 2.667 0 0 0-2.667 2.667V310M25 303.334A2.667 2.667 0 1 0 25 298a2.667 2.667 0 0 0 0 5.334Z"/>
      <path stroke="#000" stroke-linecap="round" stroke-linejoin="round" stroke-width="2" d="M33.667 310v-1.333a2.667 2.667 0 0 0-2-2.58m-2-8a2.665 2.665 0 0 1 1.445 4.218 2.667 2.667 0 0 1-1.445.949"/>
      <path fill="#334155" d="M51.01 302.035a3.086 3.086 0 0 0-.389-.81 2.477 2.477 0 0 0-1.332-1.01 3.075 3.075 0 0 0-.93-.134c-.573 0-1.09.148-1.55.443-.462.295-.826.727-1.094 1.297-.266.567-.398 1.261-.398 2.083 0 .826.134 1.523.402 2.093.269.571.637 1.003 1.104 1.298.468.295 1 .442 1.596.442.553 0 1.036-.112 1.447-.338.414-.225.734-.543.96-.954.228-.414.342-.902.342-1.462l.398.075h-2.913v-1.268h4.002v1.158c0 .856-.183 1.598-.547 2.228a3.722 3.722 0 0 1-1.502 1.451c-.636.342-1.365.512-2.187.512-.921 0-1.73-.212-2.426-.636-.693-.424-1.233-1.026-1.62-1.805-.389-.782-.582-1.71-.582-2.784 0-.812.112-1.541.338-2.187a4.757 4.757 0 0 1 .95-1.646c.41-.454.892-.8 1.446-1.039a4.528 4.528 0 0 1 1.824-.363c.55 0 1.063.081 1.537.244a4.14 4.14 0 0 1 1.272.691 3.91 3.91 0 0 1 1.427 2.421H51.01ZM54.963 309v-7.636h1.487V309h-1.487Zm.75-8.814a.947.947 0 0 1-.665-.259.84.84 0 0 1-.274-.626.83.83 0 0 1 .274-.627.937.937 0 0 1 .666-.263.92.92 0 0 1 .661.263.825.825 0 0 1 .279.627c0 .242-.093.45-.279.626a.93.93 0 0 1-.661.259Zm6.301 1.178v1.193h-4.171v-1.193h4.171Zm-3.053-1.83h1.487v7.224c0 .288.043.506.13.651a.674.674 0 0 0 .332.294c.14.049.29.074.453.074a1.7 1.7 0 0 0 .313-.025l.209-.039.268 1.228a2.509 2.509 0 0 1-.368.099 2.92 2.92 0 0 1-.596.06 2.624 2.624 0 0 1-1.094-.209 1.877 1.877 0 0 1-.82-.676c-.21-.305-.314-.688-.314-1.149v-7.532Zm6.348 4.932V309h-1.486v-10.182h1.466v3.789h.095c.179-.411.452-.738.82-.98.368-.242.848-.363 1.442-.363.523 0 .98.108 1.372.324.394.215.7.537.915.964.218.424.328.955.328 1.591V309h-1.487v-4.678c0-.56-.144-.994-.432-1.303-.289-.311-.69-.467-1.203-.467a1.97 1.97 0 0 0-.945.224 1.614 1.614 0 0 0-.651.656c-.156.285-.234.63-.234 1.034Zm11.773 1.367v-4.469h1.491V309h-1.461v-1.322h-.08a2.382 2.382 0 0 1-.845 1.019c-.385.268-.864.403-1.437.403-.49 0-.925-.108-1.303-.323a2.27 2.27 0 0 1-.884-.97c-.213-.427-.319-.956-.319-1.586v-4.857h1.487v4.678c0 .521.144.935.432 1.243.289.308.663.462 1.124.462.278 0 .555-.069.83-.208.279-.14.509-.35.691-.632.186-.281.277-.639.274-1.074ZM80.69 309v-10.182h1.486v3.784h.09c.086-.159.21-.343.373-.552a2.11 2.11 0 0 1 .676-.547c.288-.159.67-.239 1.143-.239a2.98 2.98 0 0 1 1.65.468c.485.311.864.76 1.14 1.347.278.587.417 1.293.417 2.118s-.138 1.533-.413 2.123c-.275.587-.653 1.039-1.133 1.357-.48.315-1.03.472-1.646.472-.464 0-.843-.077-1.138-.233a2.155 2.155 0 0 1-.686-.547 4.18 4.18 0 0 1-.383-.557h-.124V309H80.69Zm1.456-3.818c0 .537.078 1.008.234 1.412.156.404.381.721.676.95.295.225.657.338 1.084.338.444 0 .816-.118 1.114-.353a2.2 2.2 0 0 0 .676-.97c.156-.407.234-.866.234-1.377 0-.504-.077-.956-.23-1.357a2.079 2.079 0 0 0-.675-.95c-.299-.232-.671-.348-1.119-.348-.43 0-.795.111-1.094.333-.295.222-.518.532-.67.93-.153.398-.23.862-.23 1.392Z"/>
      <path fill="#fff" d="M11 320h214v32H11z"/>
      <path stroke="#334155" stroke-linecap="round" stroke-linejoin="round" stroke-width="2" d="M32.333 331.334H21.667c-.737 0-1.334.597-1.334 1.333v6.667c0 .736.597 1.333 1.334 1.333h10.666c.737 0 1.334-.597 1.334-1.333v-6.667c0-.736-.597-1.333-1.334-1.333Zm-12 3.333h13.334"/>
      <path fill="#334155" d="M49.672 333.493a1.455 1.455 0 0 0-.656-1.094c-.385-.261-.869-.392-1.452-.392-.418 0-.779.066-1.084.199a1.67 1.67 0 0 0-.71.536 1.27 1.27 0 0 0-.25.771c0 .242.057.451.17.626.116.176.266.324.452.443.189.116.391.214.607.293.215.077.422.139.621.189l.994.259c.325.079.658.187 1 .323.341.136.658.315.95.537.29.222.526.497.705.825.183.328.274.721.274 1.178 0 .577-.15 1.089-.448 1.537-.295.447-.724.8-1.288 1.059-.56.258-1.237.387-2.033.387-.762 0-1.422-.121-1.979-.363-.556-.242-.992-.585-1.307-1.029-.315-.447-.489-.977-.522-1.591h1.541c.03.368.15.675.358.92.212.242.482.423.81.542.332.116.695.174 1.09.174.433 0 .82-.068 1.158-.204a1.93 1.93 0 0 0 .805-.577c.195-.248.293-.538.293-.87 0-.301-.086-.548-.258-.74a1.902 1.902 0 0 0-.691-.478 6.73 6.73 0 0 0-.98-.333l-1.203-.328c-.815-.222-1.461-.548-1.939-.979-.474-.431-.71-1.001-.71-1.71 0-.587.158-1.099.477-1.537a3.14 3.14 0 0 1 1.292-1.019c.544-.245 1.157-.368 1.84-.368.69 0 1.297.121 1.824.363.53.242.948.575 1.253.999.305.421.464.905.477 1.452h-1.481Zm8.174 4.34v-4.469h1.492V341h-1.462v-1.322h-.08a2.382 2.382 0 0 1-.844 1.019c-.385.268-.864.403-1.437.403-.49 0-.925-.108-1.303-.323a2.272 2.272 0 0 1-.885-.97c-.212-.427-.318-.956-.318-1.586v-4.857h1.487v4.678c0 .521.144.935.432 1.243.288.308.663.462 1.124.462.278 0 .555-.069.83-.208.278-.14.509-.35.691-.632.186-.281.277-.639.273-1.074Zm3.49 6.031v-10.5h1.45v1.238h.125c.086-.159.21-.343.373-.552a2.11 2.11 0 0 1 .676-.547c.289-.159.67-.239 1.144-.239a2.98 2.98 0 0 1 1.65.468c.484.311.864.76 1.139 1.347.278.587.417 1.293.417 2.118s-.137 1.533-.412 2.123c-.275.587-.653 1.039-1.134 1.357a2.932 2.932 0 0 1-1.645.472c-.464 0-.844-.077-1.139-.233a2.156 2.156 0 0 1-.686-.547 4.18 4.18 0 0 1-.383-.557h-.09v4.052h-1.486Zm1.456-6.682c0 .537.078 1.008.234 1.412.155.404.38.721.676.95.295.225.656.338 1.084.338.444 0 .815-.118 1.113-.353.298-.239.524-.562.676-.97.156-.407.234-.866.234-1.377 0-.504-.076-.956-.229-1.357a2.08 2.08 0 0 0-.676-.95c-.298-.232-.671-.348-1.118-.348-.431 0-.796.111-1.094.333-.295.222-.519.532-.671.93-.153.398-.23.862-.23 1.392Zm7.184 6.682v-10.5h1.452v1.238h.124c.086-.159.21-.343.373-.552a2.11 2.11 0 0 1 .676-.547c.288-.159.67-.239 1.143-.239a2.98 2.98 0 0 1 1.65.468c.485.311.864.76 1.14 1.347.278.587.417 1.293.417 2.118s-.138 1.533-.413 2.123c-.275.587-.653 1.039-1.133 1.357-.48.315-1.03.472-1.646.472-.464 0-.843-.077-1.138-.233a2.156 2.156 0 0 1-.686-.547 4.173 4.173 0 0 1-.383-.557h-.09v4.052h-1.486Zm1.457-6.682c0 .537.077 1.008.233 1.412.156.404.381.721.676.95.295.225.657.338 1.084.338.444 0 .816-.118 1.114-.353a2.2 2.2 0 0 0 .676-.97c.156-.407.234-.866.234-1.377 0-.504-.077-.956-.23-1.357a2.08 2.08 0 0 0-.675-.95c-.299-.232-.671-.348-1.119-.348-.43 0-.795.111-1.094.333-.295.222-.518.532-.67.93-.153.398-.23.862-.23 1.392Zm10.4 3.972c-.716 0-1.34-.164-1.874-.492a3.318 3.318 0 0 1-1.243-1.377c-.295-.59-.443-1.279-.443-2.068 0-.792.148-1.485.443-2.078a3.307 3.307 0 0 1 1.243-1.382c.533-.328 1.158-.493 1.874-.493.716 0 1.34.165 1.874.493.534.328.948.788 1.243 1.382.295.593.443 1.286.443 2.078 0 .789-.148 1.478-.443 2.068a3.318 3.318 0 0 1-1.243 1.377c-.533.328-1.158.492-1.874.492Zm.005-1.247c.464 0 .849-.123 1.154-.368a2.16 2.16 0 0 0 .676-.98c.149-.407.223-.857.223-1.347a3.88 3.88 0 0 0-.223-1.342 2.19 2.19 0 0 0-.677-.99c-.304-.248-.689-.373-1.153-.373-.467 0-.855.125-1.163.373a2.227 2.227 0 0 0-.681.99 3.957 3.957 0 0 0-.22 1.342c0 .49.074.94.22 1.347.149.408.376.734.68.98.309.245.697.368 1.164.368ZM87.052 341v-7.636h1.437v1.213h.08c.139-.411.384-.734.735-.969a2.103 2.103 0 0 1 1.203-.358 5.964 5.964 0 0 1 .632.034v1.422a2.639 2.639 0 0 0-.319-.054 2.936 2.936 0 0 0-.457-.035 1.94 1.94 0 0 0-.94.223 1.663 1.663 0 0 0-.885 1.497V341h-1.486Z"/>
      <path stroke="#334155" stroke-linecap="round" stroke-linejoin="round" stroke-width="1.333" d="m207 340 4-4-4-4"/>
      <path fill="#fff" d="M11 352h214v32H11z"/>
      <path stroke="#334155" stroke-linecap="round" stroke-linejoin="round" stroke-width="2" d="M30.667 372.667H25a4.661 4.661 0 0 1-4.17-2.574 4.667 4.667 0 1 1 8.643-3.426h1.194a2.999 2.999 0 0 1 2.12 5.121 2.999 2.999 0 0 1-2.12.879Z" opacity=".5"/>
      <path fill="#334155" d="M44.979 373h-1.631l3.664-10.182h1.775L52.45 373h-1.63l-2.88-8.332h-.079L44.98 373Zm.273-3.987h5.29v1.293h-5.29v-1.293Zm8.67 3.987v-10.182h3.629c.792 0 1.448.145 1.968.433.52.288.91.683 1.169 1.183a3.59 3.59 0 0 1 .387 1.681c0 .626-.13 1.189-.392 1.69a2.84 2.84 0 0 1-1.174 1.183c-.52.289-1.175.433-1.963.433H55.05v-1.303h2.356c.5 0 .907-.086 1.218-.258.312-.176.54-.415.686-.716.146-.302.22-.645.22-1.029 0-.385-.074-.726-.22-1.025a1.575 1.575 0 0 0-.69-.701c-.312-.169-.723-.253-1.233-.253h-1.93V373h-1.536Zm10.49-10.182V373h-1.536v-10.182h1.537Z" opacity=".5"/>
      <path stroke="#F1F5F9" d="M6 383.5h224"/>
      <path fill="#fff" d="M6 384h224v42H6z"/>
      <path fill="#fff" d="M11 389h214v32H11z"/>
      <path stroke="#334155" stroke-linecap="round" stroke-linejoin="round" stroke-width="2" d="M25 411h-2.667A1.333 1.333 0 0 1 21 409.667v-9.333A1.333 1.333 0 0 1 22.333 399H25m4.667 9.334L33 405l-3.333-3.333"/>
      <path stroke="#000" stroke-linecap="round" stroke-linejoin="round" stroke-width="2" d="M33 405h-8"/>
      <path fill="#334155" d="M44.119 410v-10.182h1.536v8.86h4.614V410h-6.15Zm11 .154c-.717 0-1.341-.164-1.875-.492a3.316 3.316 0 0 1-1.243-1.377c-.295-.59-.442-1.279-.442-2.068 0-.792.147-1.485.442-2.078a3.306 3.306 0 0 1 1.243-1.382c.534-.328 1.158-.493 1.874-.493.716 0 1.34.165 1.874.493.534.328.949.788 1.243 1.382.295.593.443 1.286.443 2.078 0 .789-.148 1.478-.443 2.068a3.316 3.316 0 0 1-1.242 1.377c-.534.328-1.159.492-1.875.492Zm.004-1.247c.464 0 .849-.123 1.154-.368a2.16 2.16 0 0 0 .676-.98c.149-.407.223-.857.223-1.347a3.88 3.88 0 0 0-.223-1.342 2.191 2.191 0 0 0-.676-.99c-.305-.248-.69-.373-1.154-.373-.467 0-.855.125-1.163.373a2.225 2.225 0 0 0-.681.99 3.954 3.954 0 0 0-.219 1.342c0 .49.073.94.219 1.347.149.408.376.734.68.98.31.245.697.368 1.164.368Zm8.416 4.116c-.607 0-1.129-.08-1.566-.239-.434-.159-.789-.369-1.064-.631a2.659 2.659 0 0 1-.617-.86l1.278-.527c.09.146.209.3.358.462.153.166.358.307.617.423.261.116.598.174 1.009.174.563 0 1.029-.138 1.397-.413.368-.272.552-.706.552-1.302v-1.502h-.095c-.09.163-.219.343-.388.542a2.097 2.097 0 0 1-.686.517c-.291.146-.67.219-1.138.219a3.178 3.178 0 0 1-1.63-.423c-.481-.285-.863-.704-1.144-1.257-.279-.557-.418-1.242-.418-2.054 0-.812.138-1.508.413-2.088.278-.58.66-1.024 1.143-1.332a2.97 2.97 0 0 1 1.646-.468c.474 0 .857.08 1.148.239.292.156.519.338.681.547.166.209.294.393.383.552h.11v-1.238h1.456v7.805c0 .657-.152 1.195-.457 1.616a2.69 2.69 0 0 1-1.238.935c-.517.202-1.1.303-1.75.303Zm-.015-4.37c.428 0 .789-.099 1.084-.298.298-.202.523-.491.676-.865.156-.378.234-.831.234-1.358 0-.513-.077-.966-.23-1.357a2.02 2.02 0 0 0-.67-.915c-.295-.222-.66-.333-1.094-.333-.447 0-.82.116-1.119.348a2.104 2.104 0 0 0-.676.935 3.715 3.715 0 0 0-.224 1.322c0 .501.077.94.23 1.318.152.378.377.673.675.885.302.212.673.318 1.114.318Zm12.376 1.501c-.716 0-1.341-.164-1.875-.492a3.318 3.318 0 0 1-1.243-1.377c-.295-.59-.442-1.279-.442-2.068 0-.792.147-1.485.442-2.078a3.307 3.307 0 0 1 1.243-1.382c.534-.328 1.159-.493 1.874-.493.716 0 1.341.165 1.875.493.533.328.948.788 1.243 1.382.295.593.442 1.286.442 2.078 0 .789-.147 1.478-.442 2.068a3.318 3.318 0 0 1-1.243 1.377c-.534.328-1.159.492-1.874.492Zm.004-1.247c.465 0 .849-.123 1.154-.368a2.16 2.16 0 0 0 .676-.98c.15-.407.224-.857.224-1.347a3.88 3.88 0 0 0-.224-1.342 2.19 2.19 0 0 0-.676-.99c-.305-.248-.69-.373-1.154-.373-.467 0-.855.125-1.163.373a2.227 2.227 0 0 0-.681.99 3.957 3.957 0 0 0-.219 1.342c0 .49.073.94.219 1.347a2.2 2.2 0 0 0 .681.98c.308.245.696.368 1.163.368Zm10.052-2.074v-4.469h1.491V410h-1.461v-1.322h-.08a2.382 2.382 0 0 1-.845 1.019c-.385.268-.864.403-1.437.403-.49 0-.925-.108-1.302-.323a2.27 2.27 0 0 1-.885-.97c-.212-.427-.319-.956-.319-1.586v-4.857h1.487v4.678c0 .521.144.935.432 1.243.289.308.663.462 1.124.462.278 0 .555-.069.83-.208.279-.14.51-.35.691-.632.186-.281.277-.639.274-1.074Zm7.053-4.469v1.193h-4.17v-1.193h4.17Zm-3.052-1.83h1.486v7.224c0 .288.043.506.13.651a.674.674 0 0 0 .333.294c.139.049.29.074.452.074a1.7 1.7 0 0 0 .313-.025l.209-.039.268 1.228a2.505 2.505 0 0 1-.367.099c-.16.037-.358.056-.597.06a2.625 2.625 0 0 1-1.094-.209 1.876 1.876 0 0 1-.82-.676c-.209-.305-.313-.688-.313-1.149v-7.532Z"/>
      <path fill="#64748B" d="M187.277 409.196c-.347 0-.665-.085-.955-.255a1.977 1.977 0 0 1-.69-.691 1.85 1.85 0 0 1-.256-.954c0-.35.086-.668.256-.955.171-.29.401-.521.69-.694.29-.174.608-.26.955-.26h.937v-1.509h-.937c-.347 0-.665-.085-.955-.256a1.93 1.93 0 0 1-.69-.686 1.857 1.857 0 0 1-.256-.958c0-.35.086-.668.256-.955a1.93 1.93 0 0 1 .69-.686c.29-.173.608-.26.955-.26.349 0 .668.087.955.26.289.17.519.399.69.686.173.287.26.605.26.955v.929h1.513v-.929c0-.35.085-.668.255-.955.171-.287.399-.516.686-.686.29-.173.61-.26.959-.26.35 0 .668.087.955.26.287.17.515.399.686.686.17.287.255.605.255.955 0 .349-.085.669-.255.958a1.935 1.935 0 0 1-.686.686 1.83 1.83 0 0 1-.955.256h-.933v1.509h.933c.35 0 .668.086.955.26.287.173.515.404.686.694.17.287.255.605.255.955 0 .346-.085.665-.255.954a1.982 1.982 0 0 1-.686.691c-.287.17-.605.255-.955.255-.349 0-.669-.085-.959-.255a1.982 1.982 0 0 1-.686-.691 1.85 1.85 0 0 1-.255-.954v-.938h-1.513v.938c0 .346-.087.665-.26.954a1.977 1.977 0 0 1-.69.691 1.84 1.84 0 0 1-.955.255Zm0-.971a.941.941 0 0 0 .81-.461.894.894 0 0 0 .127-.468v-.938h-.937a.95.95 0 0 0-.81.465.927.927 0 0 0-.123.473.92.92 0 0 0 .933.929Zm0-5.318h.937v-.929a.88.88 0 0 0-.127-.469.957.957 0 0 0-.341-.337.907.907 0 0 0-.469-.123.923.923 0 0 0-.469.123.905.905 0 0 0-.464.806.93.93 0 0 0 .123.473.96.96 0 0 0 .341.332.924.924 0 0 0 .469.124Zm4.385 0h.933a.908.908 0 0 0 .801-.456.895.895 0 0 0 .128-.473.872.872 0 0 0-.128-.469.907.907 0 0 0-.801-.46.913.913 0 0 0-.809.46.896.896 0 0 0-.124.469v.929Zm.933 5.318a.898.898 0 0 0 .801-.461.886.886 0 0 0 .128-.468.893.893 0 0 0-.128-.473.917.917 0 0 0-.801-.465h-.933v.938c0 .17.041.326.124.468a.92.92 0 0 0 .809.461Zm-3.413-2.838h1.513v-1.509h-1.513v1.509Zm7.725-.533 5.262-5.263 5.267 5.263h-2.676V409h-5.182v-4.146h-2.671Zm2.22-.869h1.491v4.146h3.107v-4.146h1.491l-3.047-3.047-3.042 3.047ZM209.428 409v-8.727h3.196c.619 0 1.132.102 1.538.307.406.202.71.476.912.822.202.344.302.732.302 1.164 0 .363-.066.67-.2.92a1.646 1.646 0 0 1-.537.597 2.397 2.397 0 0 1-.733.324v.085c.29.014.573.108.848.281.279.17.509.413.691.729.181.315.272.699.272 1.15 0 .446-.105.847-.315 1.202-.207.352-.528.632-.963.839-.435.205-.99.307-1.666.307h-3.345Zm1.316-1.129h1.901c.631 0 1.082-.122 1.355-.366a1.18 1.18 0 0 0 .409-.917c0-.275-.07-.528-.209-.758a1.491 1.491 0 0 0-.596-.55 1.918 1.918 0 0 0-.912-.204h-1.948v2.795Zm0-3.822h1.765c.295 0 .561-.057.796-.171.239-.114.428-.273.567-.477.142-.208.213-.452.213-.733 0-.361-.126-.663-.379-.908-.253-.244-.641-.366-1.163-.366h-1.799v2.655Z"/>
    </g>
    <rect width="223" height="423" x="6.5" y="2.5" stroke="#F1F5F9" rx="5.5" shape-rendering="crispEdges"/>
  </g>
  <defs>
    <clipPath id="b">
      <rect width="224" height="424" x="6" y="2" fill="#fff" rx="6"/>
    </clipPath>
    <clipPath id="c">
      <path fill="#fff" d="M19 121h16v16H19z"/>
    </clipPath>
    <filter id="a" width="236" height="436" x="0" y="0" color-interpolation-filters="sRGB" filterUnits="userSpaceOnUse">
      <feFlood flood-opacity="0" result="BackgroundImageFix"/>
      <feColorMatrix in="SourceAlpha" result="hardAlpha" values="0 0 0 0 0 0 0 0 0 0 0 0 0 0 0 0 0 0 127 0"/>
      <feOffset dy="4"/>
      <feGaussianBlur stdDeviation="3"/>
      <feComposite in2="hardAlpha" operator="out"/>
      <feColorMatrix values="0 0 0 0 0 0 0 0 0 0 0 0 0 0 0 0 0 0 0.09 0"/>
      <feBlend in2="BackgroundImageFix" result="effect1_dropShadow_13_2363"/>
      <feBlend in="SourceGraphic" in2="effect1_dropShadow_13_2363" result="shape"/>
    </filter>
  </defs>
</svg>
