<svg xmlns="http://www.w3.org/2000/svg" width="20" height="20" fill="none" viewBox="0 0 20 20">
  <path fill="#000" fill-opacity=".6" fill-rule="evenodd" d="M16.428 12.942a.521.521 0 0 0 .262-.45l.009-3.014a.52.52 0 0 1 .261-.45l1.634-.939a.52.52 0 0 1 .78.452v5.48a.52.52 0 0 1-.261.451l-6.166 3.542a.521.521 0 0 1-.518 0L7.59 15.248a.52.52 0 0 1-.262-.452v-2.763c0-.003.003-.005.006-.004.003.002.007 0 .007-.004v-.003c0-.002 0-.004.003-.005l3.985-2.29c.004-.002.002-.007-.002-.007-.001 0-.002 0-.003-.002l-.001-.003.008-2.708a.52.52 0 0 0-.781-.453L7.587 8.259a.52.52 0 0 1-.52 0l-2.97-1.71a.52.52 0 0 0-.781.45v4.896a.52.52 0 0 1-.78.453l-1.648-.943a.52.52 0 0 1-.263-.453L.64 2.395a.52.52 0 0 1 .78-.45l5.648 3.243a.52.52 0 0 0 .519 0l5.647-3.244a.52.52 0 0 1 .78.452v8.56a.521.521 0 0 1-.26.451l-2.958 1.703a.522.522 0 0 0 .002.904l1.631.929a.52.52 0 0 0 .517-.001l3.482-2Zm.342-7.678a.521.521 0 0 0 .789.446l1.562-.937a.521.521 0 0 0 .254-.447v-1.91a.522.522 0 0 0-.79-.446l-1.562.938a.521.521 0 0 0-.253.446v1.91Z" clip-rule="evenodd"/>
</svg>
